<?xml version="1.0" encoding="utf-8"?>
<!-- Generator: Adobe Illustrator 23.0.5, SVG Export Plug-In . SVG Version: 6.00 Build 0)  -->
<svg version="1.1" id="Capa_1" xmlns="http://www.w3.org/2000/svg" xmlns:xlink="http://www.w3.org/1999/xlink" x="0px" y="0px"
	 viewBox="0 0 1000 1000" style="enable-background:new 0 0 1000 1000;" xml:space="preserve">
<style type="text/css">
	.st0{stroke:#6AFF8F;stroke-width:40;stroke-miterlimit:10;}
</style>
<g>
	<path class="st0" d="M251.8,238.9c8,2.5,14.6-3.1,21.9-6.2c2.1-0.9,3-2.8,3.2-5.1c0.4-4.7,2.7-8.7,5.6-12.2
		c1.9-2.3,3.4-4.8,4.5-7.6c1.6-4.1,3.9-7.8,6.5-11.5c4.3-6.1,8.4-13.3,7.1-21.8c-0.9-6.1,4.7-13.8,11.6-15.7c5-1.4,8-4.1,10-8.9
		c3.1-7.3,6.7-9,14.9-7.5c2.3,0.4,2.8-0.7,3.3-2.3c2.1-7.6,7.3-11.1,14.9-11.6c1.4-0.1,3.1-1,4.1-2c3.5-3.5,7.1-6.6,12.2-7.6
		c2.4-0.5,3.1-3.1,4.4-5c3.6-5.3,8-9.4,14.9-9.1c5.9,0.3,11.6,1.7,13.8,7.7c2.5,7,3.4,14.5-1.3,21c-2.9,4.1-3.1,6.8,0.5,10.9
		c3.9,4.5,7.4,9.9,3.3,16.6c-1.4,2.3-1.1,4.7,1.3,7c8.5,7.7,11.6,23.8,6.3,33.9c-2.5,4.8-3.7,10-6.1,14.9c-1.7,3.5-0.1,9.3,1.6,13.4
		c1.6,3.9,2.3,7.7,2.1,11.7c-0.2,4.5,1.4,7.4,5.8,8.7c3.4,1,5.6,3.2,7.1,6.4c2.6,5.4,8.5,9,8.5,15.9c0,0.5,0.7,1.3,1.2,1.6
		c10.3,5,12.9,15,16.1,24.6c1.1,3.3,2.6,6.4,3.7,9.7c1.3,4.1,6.1,4,9.4,4.3c6.5,0.5,11.3,3,14.6,8.6c1.2,2.1,3.5,3,5.8,3.2
		c3.9,0.3,6.5,2.3,8.5,5.4c2.5,3.8,5.7,6.1,10.6,6.8c9.4,1.5,15.6,9.3,15.9,18.7c0.2,7.9,6,14.4,14.4,14.1c11.2-0.4,21.5,2.9,32,5.7
		c2.6,0.7,4.7,0.5,6.6-1.6c1.8-1.9,4.1-3.4,6.8-3.8c13.2-2.1,26.4-3.8,38.3,4.9c2.9,2.1,6.4,3.5,10.1,4.2c5.6,1.1,9.5,4.9,13.2,9
		c1.7,2,3.3,4.1,5,6c3.2,3.6,6.7,4.6,10.9,1.2c6.6-5.2,13.9-7.8,22.5-4.9c5.3,1.8,9.3,4.5,10.4,10.5c0.6,3.2,1.7,6.4,3,9.5
		c1.4,3.4,2.8,6.5,7.2,7.6s7,5.1,9.5,8.6c2.5,3.4,5.4,5.7,10.1,5.1c2.7-0.4,5.6,0.2,8.4,0.2c4,0,7.1,1.3,8.9,5.2
		c2.5,5.4,7.1,7.5,12.8,7.3c4.9-0.2,8.8,1.6,11.8,5.5c2.3,3,5.9,4.4,8.9,2.6c7.5-4.5,13.8,0,20.5,1.7c1.8,0.4,3.5,1.4,5.3,2.2
		c5.3,2.3,9.8,5,10.3,11.8c0.4,4.4,2.7,8.3,6.6,11.4c6,4.9,10.3,11.7,17.3,15.8c4.1,2.4,11.2,5.4,15.9,5.1
		c6.1-0.4,12.2-0.7,17.8,2.7c6.3,3.7,8,10.3,3.3,15.6c-2.4,2.7-5.3,5.3-8.5,6.9c-16.3,8.4-31.7,18.4-47.7,27.3
		c-19.8,11-39.4,22.5-59,34c-29.3,17-58.5,34.1-87.7,51.1c-12.1,7-24.3,13.8-36.3,20.9c-7.4,4.4-15.4,6.1-23.7,7.5
		c-5.1,0.8-9.8,3.3-15.1,3.6c-2.8,0.2-3.6,2.9-3.6,5.6c0,9.8,0.5,19.6-0.6,29.4c-0.3,2.4,0.7,4.8,2.2,6.9c3.8,5.4,5.8,11.5,7,17.9
		c0.3,1.8,1.1,3.3,2.4,4.5c3.4,3.2,5.2,7.5,8.2,10.8c5.7,6.2,10.5,12.9,15.4,19.8c3.7,5.2,10.4,8.1,15.4,12.3
		c4.9,4.1,9.1,8.7,9.2,15.7c0,2.6,1.7,4.5,3.6,6.2c2.1,1.9,4.4,3.5,6.3,5.6c4.2,4.4,4.6,9.2,2.3,14.9c-2,4.8-6.1,5.2-10,5
		c-18.7-1-37.4,0.4-56-2.6c-2.9-0.5-5.9-0.4-8.9-0.4c-32.5,0.3-64.9-4.5-97.4-3.6c-12.7,0.4-25.5-0.9-38,2.9
		c-1.3,0.4-2.8,0.5-4.2,0.5c-9.8,0.6-14,4.6-15.2,14.5c-1.4,11.2-5.5,21.6-10.4,31.6c-2.9,6-8.6,9.6-14.5,12.4
		c-13.1,6-26.9,10.5-40.7,14.8c-9.1,2.8-18.8,2.5-28,0.2c-21.3-5.2-38.9-16.9-53.9-32.5c-6.9-7.2-12.8-15.4-17.3-24.2
		c-5.2-10.3-13-18.2-21.4-25.6c-12-10.7-21.9-23.7-34.6-33.5c-6.9-5.3-11.3-12.7-17.6-18.5c-4.7-4.3-7.9-10.2-7.4-17.2
		c0.5-7.3-4.7-12.1-8.1-17.7c-4.2-7-8.9-12.8-17.6-15.2c-5.5-1.5-8.9-6.4-10.3-12.8c-1.6-7.4-3.4-14.6-3-22.2
		c0.1-2.5-1.6-4.1-3.3-5.7c-8.4-7.5-12.2-16.5-8.9-27.7c1.4-4.8-0.7-8.5-2.9-12.3c-4-7-4.2-14,0.7-20.6c2.8-3.8,2.9-7.6,1.8-11.9
		c-2.9-11-2.5-21.9,0.2-33.1c1.6-6.8,4.4-13.5,4.3-20.9c-0.1-4.5,2.5-8.6,5.3-12.3c1.1-1.4,1.8-3.1,3.1-4.2
		c7.5-6.7,3.9-14.8,2.7-22.4c-1.9-11.7,2.3-20.9,10.7-28.5c6.8-6.3,12.8-13.2,16.8-21.8c2.6-5.6,6.6-9.9,12.4-12.3
		c3.5-1.4,4.9-3.9,5.6-7.5c1.3-7,3.1-13.9,4.5-20.9c0.5-2.2,0.9-4.5,0.8-6.7c-0.7-9.6,1.3-19.1,0.1-28.8c-1.1-8.8,2.7-16.6,5.1-24.7
		c0.4-1.5,1.1-3.1,0.9-4.6c-1.1-5.9,0.1-11.2,2-16.8c1.3-3.9-1.7-7.9-4.5-11.1c-2.6-2.9-4.8-6-6.5-9.5c-4-8-2.2-14.2,5.5-19.1
		c2.1-1.3,3.2-3,3.7-5.4c1.2-5.3,4-10.1,9.3-11.1c11.6-2.1,12.7-11,14.8-19.8c1.6-6.7,4.8-12.3,11.2-15.6
		C241.9,238.3,246.6,239.5,251.8,238.9z M854.2,512.5c-3.7-0.6-6.6-0.4-9.5,1.4c-2.9,1.8-6.1,3.5-9.6,4c-4.6,0.6-10.3-1.9-10.5-5.8
		c-0.3-6.7-4.7-9.2-9.5-12c-2.5-1.4-4.2-3.7-5.7-6.1c-1.8-2.9-4.1-5-7-6.8c-3.6-2.3-8.6-3.9-7.9-9.9c0.6-5.1-0.5-9.1-6.4-10.8
		c-4.5-1.3-8.8-3.7-13.6-1.5c-5.2,2.3-15.9,0.8-19.2-3.4c-3.4-4.4-8-5.9-12.9-5.8c-5.8,0.1-9.4-2.8-12.6-7.1
		c-3.8-5.1-7.1-6.2-13.1-3.9c-2.3,0.9-4.4,1.3-6.4-0.2c-3.5-2.6-7.3-5.1-9.7-8.7c-2.5-3.9-5.1-7-10.1-7.3c-1.8-0.1-2.9-1.9-3.8-3.4
		c-3.4-5.5-6.4-11.2-7.7-17.6c-1.1-5.5-6.2-7.5-11.1-4.4c-2.1,1.3-3.9,2.9-5.9,4.3c-8.4,5.5-15.7,4.8-22.9-2.4
		c-2.1-2.1-3.9-4.5-5.9-6.7c-2.8-3.2-5.6-7-9.7-7.6c-4.7-0.6-8.1-2.7-11.6-5.3c-7.7-5.7-16.5-4.7-25.2-4.4c-4.9,0.1-7,4.2-9.9,7.1
		c-2.3,2.3-5.3,3.1-7.7,1.6c-5-3.1-10.7-3.2-16-4.6c-5.7-1.5-11.5-6.9-17.9-1.3c-0.5,0.4-1.9,0.3-2.5-0.1c-3.7-2.6-8.2-2.6-12.3-3.7
		c-2.9-0.8-5.3-2.5-6.4-5.7c-0.6-1.9-1.6-3.7-3.4-4.4c-5.6-2.2-5.3-6.4-3.6-10.8c1.4-3.6,0.3-5.9-2.4-8.2c-2.6-2.3-5.6-2.3-8.8-2.6
		c-5-0.4-9.7-1.7-11.1-7.6c-0.7-2.9-2.5-4.2-5.5-2.8c-3,1.5-4.9,0.5-6.2-2.5c-3.6-7.8-9-12.8-18.4-11.3c-0.8,0.1-1.8-0.1-2.6-0.4
		c-7.2-2.8-8.4-1.5-9.4-10.7c-0.9-8-3.9-15.9-8.4-22.9c-3.2-4.9-4.4-4.9-8.8-1c-1.5,1.4-3.1,3.5-5.1,0.8c-1.7-2.3-3.2-4.9-2.1-7.8
		c1.7-4.8,4.1-8.6-1-14c-3-3.1-5.1-7-9.3-8.9c-2.8-1.3-5.3-3.2-5.7-6.4c-0.5-4.5-2.3-8.8-2.5-13.4c-0.3-5.6-1.5-11.5-4.4-16
		c-3.5-5.4-2-8.8,1.8-12.3c5.2-4.9,3.5-12.8,8.1-17.9c0.3-0.3,0.3-1.1,0.1-1.5c-2.4-5.6-2-12.4-7.6-16.5c-4.5-3.3-6-7.1-3.1-12.6
		c1.7-3.2,3.3-7.2,0.1-10.8c-7.5-8.4-7.9-15.7-1.3-24.9c0.5-0.7,1.3-1.4,1.4-2.2c0.6-2.8,0.7-5.9-1.8-7.6c-2.4-1.6-4.8,0.2-5.6,2.3
		c-4.3,11.5-17.4,12.1-24.6,20c-0.7,0.7-2.3,0.9-3.5,0.8c-4.4-0.2-5.6,2-5.6,6.1c-0.1,10.8-6.8,14.7-16.2,9.7
		c-1.2-0.6-2.5-1.9-3.8-0.8c-1.5,1.3-1.1,3.3-0.3,4.9c0.9,1.7,2.1,3.2,3.2,4.8c1.9,2.8,0.8,4.4-2.2,4.6c-3.5,0.2-7,0.1-10.5-0.2
		c-7.4-0.7-9.4,1.1-9.3,8.3c0,0.7,0.1,1.5-0.2,2.1c-5.1,9.3-6.8,20-13.6,28.6c-3.8,4.9-5.4,11.6-9.5,16.7c-0.7,0.9-0.6,2.7-0.6,4.1
		c0.1,6.8-4.9,11.5-9.4,14c-4.7,2.7-10.4,4.5-15.5,7.1c-4.6,2.4-8.6,2.4-13.4,0.8c-5.4-1.9-10.9,0-12.3,4.1
		c-2.2,6.2-6.1,12.2-3.3,19.4c0.9,2.5-0.6,4.4-2.9,5.4c-4.6,2.1-9.1,4.5-13.9,6.1c-3.9,1.3-5.5,3.2-5,7.2c0.6,4.4-0.7,7.2-5.8,8.2
		s-5.9,4.3-2.6,8.5c0.7,1,1.7,1.8,2.4,2.7c6.3,8.3,10.3,17.1,4.8,27.5c-1.1,2.2-0.8,4.5,0.7,6.4c1.7,2.3,1.9,4.5,0.2,6.7
		c-1.7,2.3-1.8,4.9-1.7,7.5c0.2,3.3-0.7,6-2.7,8.7c-3,4-3.4,8.7-1.2,13.4c0.6,1.3,1.8,2.9,1.4,3.8c-2.8,7-1,14.4-1.9,21.5
		c-0.9,7.2-2.6,14.4-4.1,21.5c-1.4,6.4-1.6,14.6-6.9,18.1c-9,5.9-14.7,13.4-19.8,22.6c-3,5.4-8.2,10.3-13.4,14.6
		c-7.8,6.5-9.3,14.3-5.8,24c2,5.6,3.5,11.3-0.9,16.7c-2.1,2.5-3.5,5.7-5.2,8.5c-3.1,4.9-6.7,9.5-4.9,16c0.3,1-0.4,2.4-1,3.4
		c-5.8,10.6-6.4,22-5.5,33.6c0.5,6.4,0.1,13,2.2,19.2c0.6,1.7,0,3.9-1.2,4.9c-7.4,6.1-5,12.2-0.6,18.7c1,1.4,1.4,3.2,2.2,4.8
		c1,2,1.2,4,0.2,6.1c-4.1,8.6-2.8,16,5,21.7c4.5,3.4,5.8,8.1,6.3,13.3s0.9,10.4,1.3,15.7c0.3,3.7,1.4,7.5,5.2,8.4
		c8.5,1.9,14.5,6.3,18.7,14.1c4.7,8.8,12.8,15.9,13.6,26.7c0.5,6.8,3.6,11.8,8.3,16.8c4.9,5.2,10.1,10.1,15.3,15
		c11.3,10.5,21.6,21.9,32.9,32.4c6.4,5.9,13.3,11.5,17.5,19.3c5.1,9.4,11.2,18,17.9,26.3c6.7,8.3,15,14.4,23.5,20.6
		c9.2,6.7,19.7,10.4,30.5,13c6.2,1.5,12.7,1.5,19-1c7.4-3,15.1-5.6,22.8-7.6c16.2-4.3,28.2-12.9,31.2-30.4
		c1.7-10.1,4.4-19.7,9.1-28.8c2-3.9,4.7-5.9,9-5.9c3.8,0,7.7,0.3,11.5-0.6c11.4-2.7,23-4.1,34.6-4.6c10.9-0.5,21.7,1.8,32.4,1.7
		c30.1-0.2,60,4.2,90.1,3.7c6.6-0.1,13.2,0.8,19.8,1.5c8.1,0.8,16.1,2.2,25.2,0.9c-3-2.7-5.2-5.1-7.8-7.1c-1.9-1.5-3.2-3.3-3-5.7
		c0.7-8.3-4.7-12.7-10.5-16.8c-7.3-5-15.2-9.4-18.5-18.5c-0.5-1.4-1.4-3.1-2.6-3.9c-7.3-4.8-10-13.4-16-19.2c-1.9-1.9-2.3-4.5-3.3-7
		c-2.3-5.9-2.8-12.3-7.3-17.6c-3.4-4-5.2-9.7-3.3-15.3c1.5-4.6,1.3-9.3,1.7-14c0.6-7-2-13.4-2.8-20.1c-0.3-2.8,0.2-4.9,3.1-5.7
		c7.7-2,15.4-4.3,23.2-5.9c10.9-2.3,21.4-5,31.1-11.1c15.3-9.6,31.1-18.5,46.8-27.6c13.4-7.8,27-15.3,40.4-23.1
		c19.5-11.3,38.9-22.7,58.4-34c24.3-14.1,48.7-27.9,73-42.1C849.7,516.9,852.6,515.9,854.2,512.5z"/>
</g>
</svg>
