<?xml version="1.0" encoding="utf-8"?>
<!-- Generator: Adobe Illustrator 23.0.5, SVG Export Plug-In . SVG Version: 6.00 Build 0)  -->
<svg version="1.1" id="Capa_1" xmlns="http://www.w3.org/2000/svg" xmlns:xlink="http://www.w3.org/1999/xlink" x="0px" y="0px"
	 viewBox="0 0 1000 1000" style="enable-background:new 0 0 1000 1000;" xml:space="preserve">
<style type="text/css">
	.st0{stroke:#797979;stroke-width:40;stroke-miterlimit:10;}
</style>
<g>
	<path class="st0" d="M586.1,770.8c0,0.4,0,0.8,0.1,1.2c1.4,11.5-4.8,22.5-8.7,34c-3.8,11.3-8.3,22.5-13.9,33.1
		c-4.7,8.9-8.9,12-16.9,11.2c-4.5-0.4-7.7-2.9-8.1-7.3c-0.4-5.2-3.5-6-7.7-6.2c-12.4-0.8-24.4,2.7-36.7,2.7c-1.7,0-3.4,0.6-5.1,0.4
		c-6.5-0.6-11.3,1.2-13.8,7.9c-2.2,5.9-4.3,11.9-6.4,17.9c-2.8,7.6-2.7,16.5-9.9,22.2c-6.5,5.1-14.6,3.7-17.8-3.8
		c-3.1-7.2-5.9-14.7-8.3-22.1c-2.9-8.8-15.1-18.4-24.4-18.5c-11.2-0.1-22.4-0.5-33.5,0.2c-8.8,0.6-15.3-3-21.2-8.7
		c-1.5-1.4-2.9-3.1-4.5-4.3c-4.3-3.2-7.3-2-8.3,3.3c-1.3,7.1-7.1,10-12.5,11.9c-9.2,3.3-15.6,9.7-21.5,16.9
		c-8.7,10.5-19.9,16.9-32.4,21.8c-8.3,3.3-16.7,3.5-25.4,3.6c-14.2,0-17-8.7-19.2-20.6c-1.1-5.8-0.6-12.1-0.2-18.1
		c0.8-10.5-3.6-19.8-6.4-29.5c-1.8-6.2-4-12.4-5.4-18.7c-2-8.7-3.5-17.8-13.4-22.8c-7.8-4-13.2-10.8-9.7-21c0.9-2.6-0.4-4.5-2.4-5.8
		c-6.1-4.3-8.6-10.9-11-17.3c-2.3-6.1,1.9-11.4,4.7-16.2c3.1-5.3,3.1-9.9,0.3-14.9c-3.3-5.9-3.2-10.3,0.9-15.5
		c0.3-0.4,0.7-0.9,1-1.4c5.2-6.9,4.8-9.2-2.9-13.8c-10.5-6.3-18.5-13.6-21.3-26.9c-2.3-11.2-3-22.6-6-33.6c-0.9-3.3-2.7-5.3-4.8-7.2
		c-4.5-4-9.5-7.5-12.5-12.9c-2.1-3.8-3.5-8.1-4.6-12c-2-7.2-6.5-12.7-9.7-18.9c-2.8-5.5-1.8-13.4,3.7-16.1
		c11.6-5.9,18.9-15.9,26.5-25.8c2.4-3.1,4.8-6.3,7.2-9.5c2.3-3,1.6-6.2-1.7-6.8c-9.9-1.9-12.2-10.1-14.9-17.5
		c-1.8-5.1-4-10.2-6.1-15.1c-3.6-8.4-3.7-17.9,4.3-25.2c6.4-5.8,6.2-6.3,0.4-12.9c-11-12.4-8.4-19.7,1.1-31.9
		c3.4-4.4,7.8-8.2,11.9-12.1c7.7-7.3,9-13.7,4.8-23.2c-4.6-10.4-5.1-20.9-0.1-31.4c2.5-5.4,1.1-10.8,0.1-16.1
		c-2.1-11.3,1.7-20.8,8.9-29c8.3-9.4,8.1-9.1,2.1-20.7c-8.6-16.8-18.4-32.8-28.5-48.6c-5.5-8.5-9.9-17.7-16.4-25.6
		c-2.7-3.3-3.2-7.4-1.4-11.2c1.7-3.5,5.3-3.7,8.8-3.9c13.2-0.8,25.8,1.9,38.3,6c13.1,4.3,24.9,2.7,35.4-7.4
		c7.3-7,15.4-12.7,26.8-12.8c11.6-0.1,21.1-6.6,29.6-14.1c7.2-6.4,15.3-11.6,22.9-17.5c5.1-4,12.1-5.6,18.3-8.4
		c10.5-4.8,21.8-7.2,33-9.5c15.5-3.2,31.3-6.6,47.1-4.1c15.1,2.5,27.7,13.5,24.1,31.7c-3,15.2-5.3,30.4-3.3,45.4
		c3.9,29.4,13.6,55.9,43.3,70.1c11.1,5.3,22.2,8.7,34.3,10.5c14.3,2.2,29.2,2,42.7,9.4c10.3,5.7,19.9,12.2,29.8,18.4
		c15.1,9.4,31.3,16.4,48.2,22.2c10.7,3.7,21.4,7.2,32.4,9.5c7.9,1.7,15.8,3.6,23.9,4c12.5,0.7,21.9,7.7,30.7,15.6
		c7.5,6.7,13.9,14.2,18.4,23.4c1,2,1.2,4,1.2,6c0,7,1.3,14.3-0.3,20.9c-2.7,10.7-2.1,22.1-6.7,32.3c-1,2.2-1.1,4.5,0.3,6.5
		c7.7,11,10.5,23.4,11.3,36.6c0.4,6.9,2.1,13.8,3.6,20.6c0.9,4.2,4.6,4.8,8.2,5.7c24.3,5.8,49.3,1.9,73.8,4.6
		c6.6,0.7,13.2,1.3,19.7,2.4c3.8,0.7,6.5,3.3,6.9,7.3c0.5,4.1,0.6,8.3-1.1,12.3c-3.1,7.7-2.3,15,0.1,23c2.8,9.4,8.6,15.1,16.2,20
		c1.3,0.9,2.6,1.7,4.1,1.6c10.5-0.4,14.5,7.3,18.2,15.1c4.8,10,7.1,20.9,10.8,31.3c0.9,2.4,0.9,4.9,0,7.2
		c-4.7,11.6-8.2,23.7-13.8,35c-6.2,12.4-11.5,25.4-19.2,36.9c-5.2,7.6-4.8,13.7,0.3,21c5.2,7.5,3.4,12.6-4.6,16.9
		c-2.6,1.4-5.3,3-7.6,4.8c-3.9,3.1-7.9,2.2-11.8,0.6c-3.7-1.5-5.4-4.6-5.1-8.6c0.4-4.9-2-8.2-5.4-11.2c-5.1-4.5-10.1-9.1-15.1-13.7
		c-6.4-5.7-14.1-8.3-22.2-10.4c-11.4-3-22.9-5-34.4-5.7c-19.9-1.2-39.8-2.4-59.8,1.7c-12.7,2.6-25.7,4.2-38.2,7.7
		c-8.1,2.2-16.4,4.2-24.1,7.8c-5.3,2.5-8.7,6.8-11.3,12.1c-5.3,10.8-12.9,20.3-18,31.3C586,756.8,586.1,763.2,586.1,770.8z
		 M813,701.7c4.6,3.8,11.4,2.7,14.6-2.4c0,0,0.1-0.1,0.1-0.1c4.1-6.5,8-13.1,11.6-19.9c6.2-11.9,12.2-24,17.7-36.2
		c4.1-8.9,7.4-18.1,5.6-28.4c-0.7-4.2-2.7-7.9-4.1-11.7c-3.1-8.5-3.8-16.9-16.2-20.6c-16.9-5.1-28.6-22-29.4-41.2
		c-0.3-6.1,0.2-12.1,1.4-18.1c0.6-3,0.2-4.2-3-4.2c-17-0.1-33.9-1.4-50.8-2.9c-12.6-1.1-25.3-0.7-37.5-4.1
		c-6.1-1.7-12.8-4-14.4-11.1c-1.8-7.9-5-15.5-4.5-23.8c0.7-11.9-2.2-22.8-8.2-33c-2-3.4-2.8-7-3-10.8c-0.8-11.7,4.7-22.5,5.1-34
		c0-0.2,0.1-0.4,0.2-0.6c0.2-0.3,0.3-0.6,0.5-0.9c3.9-8.7,2.2-22.9-4.8-29.6c-3.3-3.1-6.1-6.8-9.4-9.9c-6.6-6.2-13.4-12.9-23.2-12.9
		c-9.4,0-18.3-2.8-27.2-4.8c-16.1-3.6-31.6-9.5-47.1-15.2c-20.2-7.4-37.7-19.5-56-30.3c-9.4-5.6-19-10.6-30.4-11.2
		c-22.5-1.3-44.1-6-63.3-18.3c-11.5-7.4-21.4-16.4-27.9-28.9c-3.2-6-6-12.1-8.2-18.5c-2.7-8-5.5-15.9-6-24.5
		c-0.6-12.1-0.7-24.1-0.1-36.2c0.2-4,0.7-7.8,2.3-11.6c1.8-4.4,2.2-9-0.6-13.5c-5.5-8.6-10.6-11.3-22.1-8.8
		c-12.6,2.7-25.6,2.3-37.9,6.3c-8.4,2.7-17.1,4.4-25.3,7.6c-14.4,5.6-25.9,16-37.7,25.5c-8.7,7-17.8,13.5-29,14
		c-8,0.3-14.4,2.3-20.3,7.4c-3.7,3.1-7.5,6-11.7,8.5c-9.2,5.4-18.9,10.8-29.8,7.8c-10-2.8-19.8-5.9-30-7.7c-1.4-0.3-3.1-1.5-4.3-0.2
		c-1.4,1.6,0.2,3.3,1,4.6c12,18.9,24.1,37.8,34.9,57.4c3.2,5.9,7,11.7,9.1,18c2.9,8.5-0.1,15.9-7,21.7c-6.4,5.4-8.9,11.9-7.6,20.6
		c1.3,8.3,1.3,17-1.9,25.2c-2.5,6.3-2.1,12.1,0.1,18.7c4,11.4,7.3,23.4-2.4,33.9c-4.1,4.4-8.5,8.6-13,12.6c-9,8-9.4,11.8-2.1,21
		c8.7,11,7.9,14.9-1,26.3c-1,1.3-2.4,2.4-3.5,3.7c-1.6,1.9-2,4-1.1,6.3c2.3,6.2,5.1,12.1,7.2,18.3c1.6,4.6,4,9.1,9.5,11.3
		c12.4,4.9,13.2,12.8,7.1,21.2c-10.1,13.9-18.4,29.6-33.9,38.9c-3,1.8-3.2,4.2-1.6,6.7c5.1,7.6,8.1,16.1,11.5,24.4
		c1.6,3.8,3.8,7.1,7.8,9.3c5,2.6,7.9,7.3,9.9,12.6c4.5,12.3,3.2,25.6,7.4,38.1c1.9,5.7,4.1,10.3,8.8,13.9c5.4,4.1,11.3,7.6,16,12.7
		c7.2,7.8,8,13.5,0.7,20.6c-5.1,4.9-4.4,9.2-1.3,13.7c4.8,7,1.8,12.7-2.3,18.1c-4.7,6.3-4.8,14.2,1.4,18.9c5.4,4.2,7.9,9.1,6.9,15.6
		c-0.8,6,1.4,10,6.9,12.8c5.3,2.8,10.3,6.2,12.3,12.6c3.8,12.2,5.6,24.9,10.3,36.9c1.9,4.7,4.2,9.7,4.5,15
		c0.8,11.8,3.3,23.5,3.4,35.4c0,3,1.4,4.4,4.4,4.8c3.8,0.6,7.4,0.8,11.2-0.1c16.2-3.8,28.3-13.5,38.6-26c3.9-4.8,8.5-8.4,13.9-11.3
		c5.7-3,10.9-5.9,13.9-12.9c5.8-13.3,16.6-14.6,27.9-5c1.2,1,2.4,1.9,3.5,2.9c6.5,5.9,13.7,9.1,23,8.2c9-0.9,18.1-0.3,27.2-0.3
		c2.8,0,5.7,0.1,8.3,1.3c13.9,6.4,24.1,15.9,29.9,29.7c1.4,3.3,6.2,3,6.9-0.5v-0.1c1.9-9.6,5.2-18.8,11.2-26.7
		c2.7-3.6,6.2-6.6,10.7-6.7c9.7-0.2,19.1-1.9,28.7-2.6c10.9-0.8,21.9-1,32.8-0.3c3.6,0.2,7.1,0.4,10,3c2.1,1.9,4.1,2.2,4.3-1.6
		c0.1-0.9,0.5-1.9,1-2.6c7.1-10.8,9.4-23.5,14-35.3c4-10.3,5.1-21.6,4.1-32.8c-0.3-3.1,0.9-5.7,2.2-8.6
		c5.1-11.2,12.3-21.1,18.2-31.8c2.9-5.3,5.7-11,11.3-14.5c14.1-9,30.1-12.4,46-16.2c7.9-1.9,16-2.6,23.8-4.3c13.9-3,28-3.7,42-4.4
		c5.4-0.3,11,2,16.7,2c7.5,0,15.1-0.8,22.6,0.9c9.1,2,18.4,3.7,27.4,6.2c8.9,2.5,17.8,5.6,24.5,12.3
		C808.9,698.1,810.9,699.9,813,701.7z"/>
</g>
</svg>
