<?xml version="1.0" encoding="utf-8"?>
<!-- Generator: Adobe Illustrator 23.0.5, SVG Export Plug-In . SVG Version: 6.00 Build 0)  -->
<svg version="1.1" id="Capa_1" xmlns="http://www.w3.org/2000/svg" xmlns:xlink="http://www.w3.org/1999/xlink" x="0px" y="0px"
	 viewBox="0 0 1000 1000" style="enable-background:new 0 0 1000 1000;" xml:space="preserve">
<style type="text/css">
	.st0{stroke:#9B009B;stroke-width:40;stroke-miterlimit:10;}
</style>
<g>
	<path class="st0" d="M683.6,765.8c-59.5,0-119-0.1-178.5,0.1c-8.4,0-13.9-2.8-16.9-10.5c-1.3-3.1-3.9-5.3-6.5-7.1
		c-4-2.7-8.2-1.5-10.3,2.9c-4.7,9.5-5.8,20-8.7,30.1c-2.9,9.8-9.1,15.2-19.2,15.4c-7.1,0.1-14.1,0.1-21.2,0.3
		c-4.7,0.1-8.4-2.5-12.1-4.6c-8.5-4.8-17.5-7.3-27.1-8.3c-8.5-0.9-16.1-3.4-20.6-12.1c-2.9-5.5-7.3-10.2-11.1-15.2
		c-2.2-2.8-3.7-3.1-5.5,0.8c-2.4,5.1-2,10.7-4.7,15.8c-9.5,17.5-30.9,20-42.7,4.1c-5.9-7.9-12.3-12.2-22.4-12
		c-5.5,0.1-10.3-3.7-14.9-6.7c-3.5-2.3-5.2-1.4-5.9,2.4c-0.6,3-1.6,6-1.6,9c0,13.6-2.7,26.9-4,40.3c-1.7,17.1-4.7,34.1-5.9,51.3
		c-0.3,4.5-1.8,8.9-3,13.3c-1.9,6.8-9.7,10.9-15.9,7.6c-13.5-7-27.7-12.9-39.6-22.5c-9.8-7.9-15.6-18.5-18.1-31.3
		c-3.1-16-2.9-32-1.4-47.8c1.1-11.9,1.5-24.1,4.3-36.1c3.6-15.2,6.6-30.7,10.5-45.9c3-11.5,6.5-23.1,12.5-33.5
		c6.3-10.7,6.5-22,4.1-33.7c-3.6-17.6-7.4-35.2-10.9-52.9c-2.3-11.6-0.2-22.3,7.7-31.6c3.2-3.7,4.8-8.1,4.4-13.2
		c-0.6-7,3-11.7,8.2-16c6-5,12.4-9.4,18.9-13.8c4-2.7,8.2-5,13.3-4.5c17.7,1.7,33.3-3.1,47.6-13.6c10.7-7.9,22.2-14.8,31.5-24.6
		c2.6-2.7,2.6-4.3,0.3-7.1c-4.9-6-10.5-11.5-14.2-18.5c-3.9-7.4-4.8-14.9-1.7-22.5c3.3-8.4,0.2-15.3-4.1-22
		c-3.9-6-10.2-5.9-16.4-5.3c-5.7,0.6-11.1,2.5-16.7,3.4c-12.9,2.1-24.4-0.9-35.7-6.8c-9.3-4.8-18.6-9.5-27.8-14.5
		c-11-6-17.1-15.4-21.2-26.6c-1.5-4.1-3.7-7.3-7.2-10c-7.8-5.9-12.9-13.9-17.3-22.4c-5.4-10.5-2.7-20.6,2.8-29.9
		c3.8-6.4,6-11.4,1.1-18.6c-2.5-3.7-4.5-9.2-2.3-14.7c1.4-3.5-1.2-3.3-3.5-2.9c-2.8,0.6-5.4,1.7-8.4,1.3
		c-17.9-2.3-21.7-15.7-15.9-30.3c2.2-5.6,4.5-10.5,1.6-16.7c-1.5-3.1-1.3-7-0.6-10.7c1.6-8.4-0.2-15.4-8.8-19.4
		c-3.3-1.6-5.5-4.4-7.4-7.7c-8-14,0.9-30.3,17-30.6c3.6-0.1,7.3,0.2,10.9-0.1c6.8-0.6,12.4,1,16,7.4c1.2,2.1,3.4,2.9,5.8,3.1
		c8.3,0.8,16.5,2.2,24.5,5c7,2.4,14.2,4.2,21.4,6c4.1,1,7.6,3,9.9,6.3c4.9,7,9.4,14.3,13.9,21.6c0.8,1.2,1.1,2.9,1.1,4.3
		c0.2,3,1.4,5.2,4.1,6.4c4.5,1.9,9.2,3.6,13.8,5.1c2.3,0.7,3.8-0.8,5.2-2.6c9.9-12.4,22.6-21.3,36.3-28.8c7-3.8,14.4-3.1,22.1-0.8
		c8.9,2.7,18,4.9,27,7c10.4,2.4,17.1,8.6,21.9,17.5c1.6,3,2.9,6.2,4.6,9.2c2.9,5,6,5.5,10.8,2.3c8.7-5.8,17.6-10.5,28.7-9.4
		c14.4,1.4,34.9,15.5,33.9,34.2c-0.4,8.4,3,15.5,8.9,21.5c4.8,4.8,6,11.8,9.8,17.3c4.9,7.1,10.4,13.5,18.4,17.4
		c9.5,4.7,16.1,11.9,18.9,22.3c0.3,1,0.1,2.6,1.7,2.4c0.7-0.1,1.5-1.1,1.9-1.9c1-1.8,1.5-3.9,2.6-5.7c5.9-9.7,15.9-13.7,28.3-10.8
		c5.9,1.4,11.6,1.7,17.5,1.7c11.8,0.1,17.9,7.1,16.2,19c-1,7-2.9,13.7-3.5,20.8c-1,11.8-0.6,23.6-0.1,35.4c0.6,15.2-0.8,30.6,1,45.7
		c3.9,33.4,0.9,67.1,5.5,100.3c1.1,7.7,3.4,15.1,5.6,22.6c0.8,2.8,1,5.6,1.1,8.4c0.1,19.3,0.1,38.5,0.2,57.8c0,2.7,0.2,5.3,0.4,8
		c0.4,4.1,2.3,6.7,6.7,7.2c2.3,0.2,4.5,1,6.7,1.5c3.6,0.9,6.3-0.3,8.4-3.3c3.4-4.9,8-8,14-8.9c2-0.3,3.7-1.3,4.7-3
		c4.2-7.2,10.4-10.6,18.6-9c9.2,1.9,12.6,9.3,14.6,17.3c2.5,9.8,2.8,10.5,12.8,10.6c11.4,0.1,22.9,0.3,34.3,0.1
		c28.2-0.6,56.4,0.5,84.6,1.5c30.3,1.1,60.6,0.5,90.9,0.9c2.9,0,5.7-0.1,8.5,0.9c7.9,2.7,10.9,9.9,6.9,17.1
		c-5,8.9-7.7,17.7-7.2,28.6c1.2,26.1,0.5,52.2,0.3,78.3c0,7.5-1,14.8-9.1,18.8c-3.3,1.6-6.6,1.5-10,1.5
		C803.3,765.8,743.4,765.8,683.6,765.8z M683.7,753.1c58.7,0,117.5,0,176.2,0c7.4,0,7.8-0.4,7.8-7.7c0-25.6,0.3-51.1-0.1-76.7
		c-0.2-10.7,0.6-20.7,7.3-29.7c3.1-4.2,1.9-5.9-3.6-6c-11-0.4-22.1-0.9-33.1-0.9c-54.2-0.2-108.3-0.3-162.5-0.2
		c-8.3,0-16.3-1.6-24.3-3.3c-5.4-1.1-9.2-4.8-10.1-10.4c-0.5-3.5-1.6-6.6-3-9.7c-1.1-2.5-1.9-5.4-5-5.6c-3-0.1-4.5,2.7-5.8,4.9
		c-1.5,2.5-2.7,5.7-6,5.5c-7.6-0.5-11.4,3.8-14.7,9.6c-1.5,2.7-3.6,6.1-7.6,4.8c-5.8-1.8-11.7-1.4-17.6-1.7c-11-0.7-16-6.1-16-16.8
		c0-19.8,0.6-39.7-1.4-59.4c-0.9-9.4,0.3-19.1-4-28.1c-4.2-8.8-4.1-18.4-3.9-27.9c0.1-6.3,0.5-12.7-0.3-18.9c-4-29.5-2-59.3-5-88.9
		c-1.8-18.1-0.5-36.6-0.4-54.9c0-2.6,0-5.5,0.8-7.9c1.9-5.5,1.8-11.2,2.5-16.9c0.6-5-1.1-7.3-6.5-7.3c-6.8,0.1-13.8,0.6-20.5-0.7
		c-5.5-1-9.2,1.4-11,6c-1.8,4.5-4,9.1-4,14.2c0,4.6-2.5,7.6-6.8,8.7c-4.4,1.1-8.1-0.2-10.8-4.4c-2.8-4.4-4.7-9.1-5.8-14.1
		c-1.8-8.2-6.3-14.2-13.6-18c-13-6.8-21.8-17.5-28.1-30.5c-1.4-2.9-2.8-5.9-5.1-8.3c-7.2-7.5-10.6-16.2-10.1-26.9
		c0.4-9.7-10-20.6-19.4-22.6c-8.7-1.9-16,0.1-23,5.5c-10.3,8-22.7,5.8-29.8-5c-1-1.6-1.8-3.4-2.5-5.1c-3-7-6.9-13.7-14.6-15.9
		c-11.5-3.2-22.8-7-34.9-7.8c-4.9-0.3-9.4,0.1-13.4,3.4c-7.3,6-15,11.7-22.3,17.7c-3,2.5-4.8,5.9-5.5,9.8c-1.7,8.7-4.1,9.7-12,4.8
		c-5.5-3.4-11.3-5.8-17.6-7.7c-10.3-3.2-12.5-0.8-13-14.3c0-0.9-0.1-2.1-0.6-2.8c-7.1-9.4-9.6-23.6-25.1-24.3
		c-0.4,0-0.7-0.3-1.1-0.4c-12.6-3.1-24.6-9.4-38.2-7.9c-4.4,0.5-7-2.4-9.2-5.7c-4.8-7.5-17.5-8.3-23.5-1.5c-2.6,2.9-3,5.3-0.1,8.4
		c3.5,3.8,7.4,7.1,12,9.6c5.1,2.7,7.2,6.6,7.1,12.5c-0.2,7.9-1.5,15.8-0.2,23.9c1.8,11.5,1.3,11.5-3.8,21.8c-0.3,0.7-0.8,1.3-1,2.1
		c-1.5,4.6,1.9,8.9,6.8,8.5c3-0.3,5.8-1.3,7.4-3.8c6.2-9.4,15.5-9,25-8.4c2.7,0.2,4.8,1.2,5.8,3.8c1,2.5,0,4.4-1.6,6.3
		c-2.9,3.3-5.9,6.4-8.6,9.9c-6.2,8-6.7,11.9-1,20.3c4.1,6.1,4.1,12,0.2,18.1c-0.9,1.4-1.8,2.9-2.8,4.3c-6.8,9.9-6.3,19.1,1.1,28.9
		c3,4,6.1,7.8,10.1,10.8c4.9,3.7,7.6,8.8,9.6,14.5c3.1,8.8,8,16.2,16.6,21c9.3,5.2,19.1,9.3,28.3,14.5c10.8,6.1,21.7,7.1,33.5,3.6
		c5.2-1.6,10.9-2.1,16.4-2.3c5.7-0.2,11.9,0.5,16.2,4.3c9.9,8.8,17.7,25,11.4,39.7c-1.8,4.1-1.4,8,0.7,12
		c3.7,7.1,9.3,12.5,14.7,18.1c7.9,8.3,8.2,12.2,0.4,20.3c-12.1,12.6-26.4,22.3-41,31.7c-9,5.8-18.2,10.7-29.2,12
		c-5.9,0.7-11.7,1.1-17.6,1.2c-3.5,0-6.9,0.2-9.8,2.4c-6,4.4-11.9,8.8-17.9,13.2c-2.1,1.6-3.6,3.5-3.3,6.3
		c0.9,8.4-2.5,15.2-7.6,21.4c-5.9,7.2-7,15.1-4,24.1c2,6,3,12.4,4.3,18.6c1.8,8.5,3.7,17,5.2,25.5s3.3,17.1,2.3,26
		c-1.1,9.5-5.6,17.6-9.4,26.1c-6.4,14.4-10.6,29.5-13.7,45c-1.2,6.1-2.8,12.2-4,18.4c-1.8,9.5-4.4,18.9-4.8,28.5
		c-0.8,17.7-0.4,35.5-0.2,53.2c0.1,11.1,5.4,19.8,13.4,27.2c8.7,8,19.3,12.8,29.7,17.8c7.5,3.6,7.5,3.4,8.2-5.1
		c1-11.2,1.7-22.4,3.9-33.4c2.5-12.5,2.8-25.3,4.7-37.8c1.8-12.1,3.4-24.4,4.4-36.7c0.8-10.3,6-13.9,14.5-11.5
		c3.6,1,7.4,2.6,10.1,5.1c5.5,4.9,11.6,7,18.7,7c3.8,0,7.1,1.2,10.1,3.4c4.1,3.1,8,6.3,10.9,10.8c2.8,4.3,7.2,7.6,12.3,7
		c5.1-0.5,8.8-4.3,10.4-9.5c1.8-6,3.8-11.9,5.6-17.9c2.3-7.6,9.2-10.5,16.2-7c8.8,4.4,13.6,12.7,18.5,20.5
		c4.3,6.9,10.3,10.3,17.6,10.7c12,0.8,22.3,5.6,32.7,10.9c8.4,4.2,17.5,2.1,26-0.7c1.6-0.5,2.8-2.1,3.2-3.8
		c1.2-5.4,3.6-10.4,4.5-15.9c1.5-8.6,3.8-17.2,9.7-24c3-3.5,6.3-7.2,11.6-5.8c8.8,2.3,18,4.8,22,14.1c2.6,6,6.8,6.1,11.9,6.1
		C567.8,753,625.7,753.1,683.7,753.1z"/>
</g>
</svg>
