<?xml version="1.0" encoding="utf-8"?>
<!-- Generator: Adobe Illustrator 23.0.5, SVG Export Plug-In . SVG Version: 6.00 Build 0)  -->
<svg version="1.1" id="Capa_1" xmlns="http://www.w3.org/2000/svg" xmlns:xlink="http://www.w3.org/1999/xlink" x="0px" y="0px"
	 viewBox="0 0 1000 1000" style="enable-background:new 0 0 1000 1000;" xml:space="preserve">
<style type="text/css">
	.st0{fill:none;stroke:#0080C0;stroke-width:40;stroke-miterlimit:10;}
</style>
<g>
	<path class="st0" d="M172.1,576.5c-0.5-4.8,1.5-7.4,5.6-9.4c6.5-3.2,12.7-7,19-10.6c1.7-0.9,3.3-2.4,2.3-4.2
		c-3.3-6.4,0.3-11.7,2.5-17.1c1.3-3.3,1.9-6.4-1-8.8c-6.1-5.2-7.7-12.6-7.8-19.7c-0.3-17.4-8.9-30.9-19.9-42.9
		c-7.1-7.8-10.3-15.9-9.5-26.3c0.4-5.8,2.3-10.8,5.6-15.2c3.5-4.6,6.5-9.4,8.2-14.8c2.4-7.1,7.7-10.5,14-12.8
		c5.8-2.2,11.8-3.7,18.1-4c10.3-0.4,13.5-3.4,12.7-13.8s1.5-19.7,6.9-28.3c2.3-3.7,1.2-6.2-1.9-8.1c-10.3-6.1-12.8-16-13.3-26.8
		c-0.4-7.6-0.3-15.3-0.1-22.9c0.1-4.6-1.2-7.9-5.6-9.8c-6.2-2.7-8.9-8-8-14.2c1.5-10.4,0.6-19.5-7.8-27.1c-7.5-6.7-6.8-15.9-6-24.8
		c0.7-7.9,0.8-15.9,4.9-23.2c1.4-2.5,1.2-5.4-0.5-8.1c-1.9-3-2.8-6.6-5-9.4c-7-8.7-3.2-16.5,1.8-24.1c2.9-4.4,6.1-8.6,10.4-11.9
		c5.2-4,10-8.3,14-13.7c4.3-5.8,15.3-6.1,20.7-1.1c3.4,3.1,6.3,6.7,9.7,9.8c18.4,16.9,37,33.7,54.2,51.8c6.2,6.5,8.5,15,12.8,22.5
		c11.7,20.1,26.3,37.7,44,52.9c12.6,10.9,25.5,21.5,40.1,29.7c13.8,7.8,29.1,12.3,44.6,14.7c12.9,2,25.7-1.8,38.1-5.7
		c12.8-4,25.4-8.7,38.1-12.9c9.7-3.3,19.5-6.5,28.4-11.6c6.2-3.5,9.2-9.5,11.8-15.9c3.9-9.5,8.6-18.9,9.6-29.1
		c0.8-8.6,2.8-16.8,5.7-24.7c4.7-12.6,10.9-24.6,18.4-35.9c4.1-6.1,11.1-6.3,17.6-7.3c3.1-0.5,6.4-0.2,9.6-0.2
		c13.4,0.2,26.3-2.2,39.4-4.7c7.7-1.4,15.5-3.6,23.6-3c12.6,0.9,25.1-2.1,37.7-0.1c10.2,1.5,14.8,8.9,9.3,17.5
		c-7.3,11.3-9.8,21.4-2.5,33.9c3.2,5.4,4,12.8,3.6,19.7c-0.2,3,1.2,5.4,2.8,7.8c4.1,6.2,7.1,12.4,3.9,20.3
		c-1.8,4.4-1.3,9.3,0.2,14.1c2.5,8,5.5,16,1.9,24.8c-3,7.5-2,16.1-5.4,23.7c-3.5,7.6-7.4,15-13.1,21.1c-4.3,4.6-6.3,10.1-6.2,15.9
		c0.1,7.9-2.3,15.1-5.1,22.1c-1.9,4.8-2.2,9.2-0.2,13.7c2.1,4.7,2.2,9.2,0.5,13.9c-1.6,4.3-0.1,7.4,4.6,8.3c4.2,0.8,6.6,3.6,7.6,7.4
		c1.2,4.7,4.2,7.6,8.5,9.6c4,1.9,7.7,4.3,11.7,6.3c5.7,2.8,9.7,7.6,14.2,11.7c9.6,8.7,21.1,14.8,32.5,20.9c9,4.8,16.9,11,22.2,20
		c3.9,6.8,8.9,12.8,14.3,18.4c7.8,7.9,12,17.9,15.3,28.2c3.1,9.5-4.2,19.2-14.6,19.4c-8.1,0.2-15.5,3.9-23.6,3.5
		c-3.3-0.1-4.9,3.1-4.8,6.1c0.2,6.9-3.5,12-7.1,17.3c-8.4,12.1-18,23.3-25.2,36.1c-4.1,7.2-6.8,15.2-12.1,21.8c-2.4,3-5,5.3-8.4,7.1
		c-5.6,2.9-9.3,8.1-13.6,12.5c-1.7,1.7-0.8,3.6,0.1,5.4c4.8,9.3,10.9,18.2,13.9,28c4,13.3,14.2,22.2,20.6,33.7
		c7.4,13.2,17.1,25.2,20.9,40.3c1,3.9,3.3,6.8,7.2,9.2c9.7,6.1,19.2,12.5,23.7,24.2c5.4,14,2.6,38.3-6.6,47.7
		c-7,7.2-12.5,7.8-20.5,1.5c-3.7-2.9-7.3-4.9-12.1-4.4c-2,0.2-4,0.5-5.4,1.9c-5.1,4.9-11.6,6.8-18,8.8c-12.6,3.9-28.2-3-34.3-15.1
		c-1.1-2.1-2.2-4.1-3-6.2c-2.5-6.8-6.8-11-14.3-12.7c-9.5-2.2-18.9-4.4-28.6-5.3c-4.6-0.4-7.4,3.1-10.7,5.3
		c-4.7,3.2-9,6.9-13.3,10.6c-3.1,2.7-5.2,6.2-5.5,10.6c-1.1,12.6-10.5,17.8-22.1,12.3c-8.3-3.9-16.3-8.5-25.2-11.1
		c-2.9-0.9-5.8-1.5-8.7-2.2c-7-1.8-12.1-7-12.1-13.6c0-11.4-6.6-19.6-13.8-26.7c-12.7-12.6-26.4-24-38.9-36.9
		c-14.1-14.6-28.9-28.5-42-44c-8-9.5-16.5-19.1-28-25c-4.6-2.4-9.6-2.8-14.3-3.8c-12.7-2.6-22-8.9-28.5-20.1c-1.8-3.2-2.9-8-7.3-8.6
		c-5.8-0.8-11.6-0.4-17.4,1.2c-7.9,2.2-13.3,7.8-18.9,13.2c-7.6,7.3-15.9,13.6-25.9,17.2c-0.7,0.2-1.3,0.7-2,0.7
		c-12,0.2-24.1,2.2-36-0.3c-7-1.5-13.9-2.8-21-1.4c-1.7,0.3-3.4,0.8-5.1,1.4c-7.8,2.7-14.6-0.1-18.1-7.6
		c-9.8-21.1-20-41.9-33.1-61.1c-5-7.4-11.4-13.5-18.7-18.7c-9-6.3-18.5-11.9-27-18.9C173.3,583.4,171.5,580.5,172.1,576.5z
		 M215.1,554.8c-0.1,2.8-2.3,4.4-4.4,6.1c-7.2,5.6-15.5,9.3-23.4,13.7c-3,1.7-3.2,3-0.6,5c3.4,2.6,6.7,5.3,10.3,7.5
		c18.4,10.9,33.1,25.1,43.5,44.1c7.8,14.1,14.7,28.7,22.1,43c4.2,8.2,5.7,9.1,14.4,5.8c5.4-2,10.6-1.7,16.1-0.2
		c6.4,1.9,13.2,4.2,19.7,3.3c6-0.9,11.9-1.4,17.9-1.4c3.1,0,5.8-0.8,8.6-2.3c7.7-4.2,14.4-9.9,20.3-16.2
		c11.6-12.2,26.6-14.4,42.2-15.3c2.6-0.2,4.9,0.7,6.5,3c3.3,4.8,7.3,9.3,10,14.4c4.6,8.6,11.8,11.9,20.9,13.5
		c8.3,1.5,16.8,3,23.5,9.1c3.8,3.5,7.7,6.8,11.5,10.2c17.6,15.9,30.4,36.6,49.8,50.8c0.6,0.4,1,1,1.5,1.6c5.5,7.5,12.4,13.6,19.1,20
		c11.6,11.1,25.2,20.2,33.1,34.9c2.7,5.1,5.9,9.7,5.5,15.8c-0.2,3.2,1.4,5.1,4.2,6.7c3.3,2,7,2.3,10.5,3.5
		c8.4,2.8,16.1,7.3,24.2,10.8c6.2,2.7,7.4,2.1,8.1-4.5c0.6-6.2,2.8-11.4,7.9-15.6c5.5-4.5,11.4-8.5,16.6-13.3
		c7.9-7.2,16.8-7.5,26.4-4.9c6,1.6,12.1,2.8,18.1,4.1c11.9,2.6,20.6,8,24.6,19.9c0.3,0.8,0.7,1.6,1.1,2.4
		c6.5,11.6,11.8,13.9,24.9,11.5c5.2-0.9,9-4.1,13.1-6.8c7.8-5,20.7-4.5,27.3,1.1c5.2,4.4,7.3,3.8,11.3-1.9c4.8-6.8,3.1-14.4,3-21.6
		c-0.1-8.7-3.3-16.1-10.7-21.5c-4.9-3.6-9.6-7.3-15-10c-2.6-1.3-4.3-3.3-5.3-6.3c-2.5-7.5-4.5-15.3-8.5-22.2
		c-4.4-7.7-10-14.6-13.7-22.7c-1.7-3.8-4-7.4-7.4-10.3c-5.7-4.8-9-11.2-10.9-18.4c-0.5-1.9-1.2-3.7-2.1-5.4
		c-5.7-11.2-11.4-22.4-17.1-33.7c-1.1-2.2-2.7-4.7-0.8-7c5.5-6.4,10.4-13.7,18.1-17.8c5.7-3.1,9.8-7.5,12.8-13.1
		c3.6-6.7,6.4-13.9,10.6-20.2c7.9-11.8,16.5-23,24.9-34.5c1.6-2.2,2.7-4.5,2.9-7.3c0.7-10,4.5-14.4,13.8-17.4
		c4.4-1.4,8.7-1.4,13.1-1.5c4.5,0,8.8-0.9,13-2.5c2.5-0.9,3.6-2.3,2.7-5.3c-2.4-8.1-5.9-15.6-11.6-21.9c-6.1-6.9-12.6-13.4-17-21.7
		c-4.1-7.7-11.6-11.6-18.8-15.9c-10.7-6.5-22.6-11.5-31.7-20.3c-7.8-7.6-16.4-13.4-26-18.1c-6.2-3-10.9-7.1-12.4-14.2
		c-0.3-1.6-1.6-2.4-3-2.6c-2.7-0.4-4.9-2.1-7.3-3.2c-6.6-3.2-7.3-5-4.6-11.7c2.4-6,2.6-11.9,0.2-18.1c-1.9-4.8-1.7-9.6,0.6-14.4
		c3.8-8.1,5.8-16.7,6-25.7c0.1-5.8,1.5-11.3,5.9-15.5c14.4-13.6,17.6-31.6,19.5-50.1c0.3-2.7-0.5-5.3-1.3-7.8
		c-2.3-7.1-3.4-14.4-2.2-22c0.7-4.7,1.6-9.6-2.3-13.6c-3.7-3.8-5-8.4-4.9-13.6c0.2-9.4-1.6-18.3-7-26.2c-3.6-5.3-3.4-11.1-0.6-16.7
		c2.1-4.1,4.4-8.1,6.8-12.1c1.8-3.1,1.7-4.4-2.5-4.8c-9.1-0.9-18.1,1.5-27.1,0.8c-12.6-1.1-24.7,1.8-36.9,3.9
		c-14.5,2.5-29,4.1-43.7,4.6c-4.5,0.2-7.2,1.7-9.1,5.7c-2.3,5-5.4,9.6-7.6,14.6c-3.2,7.5-8,14.5-9.2,22.6
		c-2.1,14.6-5.4,28.8-11.3,42.4c-4,9.1-7.5,18.4-16.7,23.9c-7,4.2-14.4,7.6-22.2,10.1c-11.8,3.8-23.7,7.3-35.2,11.7
		c-9.9,3.8-20,7.1-30.3,9.4c-21.1,4.7-41.3-1.1-60.7-8.4c-15.8-6-29.6-15.9-42.7-26.6c-23-18.7-43.7-39.3-58.2-65.6
		c-4.3-7.8-7.3-16.4-13.8-23.1c-11.5-11.9-23.5-23.2-35.6-34.4c-8.1-7.4-17-14-23.8-22.7c-1.5-1.9-3.9-4.5-6.1-1.5
		c-5.7,7.6-14.1,12.4-20.3,19.5c-8.4,9.6-8.8,11.5-2.2,22.3c0.8,1.4,1.7,2.7,2.5,4.1c3.9,7,4.4,13.5,0.4,21.1
		c-4.2,8-3.3,17.4-4.3,26.3c-0.2,1.6,1.2,2.9,2.2,4.2c2.9,3.8,6,7.5,8.5,11.5c3.9,6.3,6.5,13.1,4.3,20.7c-2,6.9-1.8,7.6,4.7,10.7
		c5.5,2.6,8.4,6,7.9,12.7c-0.6,8.1-0.6,16.4,0,24.5c0.7,8.5,1.2,16.9,10.4,22.3c8.1,4.8,8.9,11.6,5,20.3c-0.9,1.9-2,3.8-3,5.6
		c-3.2,5.8-5.3,11.2-3.5,18.5c3,11.8-1.1,18-12.1,22.7c-6.5,2.7-13.4,3-20.2,4.3c-4.6,0.9-10.1,1.9-12,5.7
		c-4,8.2-8.7,15.8-13.5,23.4c-2.7,4.3-2,15.1,0.9,17.6c5.8,5.1,10.4,11.2,14.3,17.7c7,11.7,14.2,23.4,13.5,38
		c-0.2,3.8,0.5,7.8,3.5,10.9c6.8,7.2,8.6,15.2,3.2,24.1c-1.9,3.2-1.7,6.4,1.5,9C213.8,551.2,214.9,552.7,215.1,554.8z"/>
</g>
</svg>
