<?xml version="1.0" encoding="utf-8"?>
<!-- Generator: Adobe Illustrator 23.0.5, SVG Export Plug-In . SVG Version: 6.00 Build 0)  -->
<svg version="1.1" id="Capa_1" xmlns="http://www.w3.org/2000/svg" xmlns:xlink="http://www.w3.org/1999/xlink" x="0px" y="0px"
	 viewBox="0 0 1000 1000" style="enable-background:new 0 0 1000 1000;" xml:space="preserve">
<style type="text/css">
	.st0{stroke:#FFAAFF;stroke-width:40;stroke-miterlimit:10;}
</style>
<g>
	<path class="st0" d="M822,650.4c-8.1,0-16.2-0.1-24.3,0c-8.3,0.2-15.8,2.8-22.7,7.4c-11.4,7.6-20.7,17.7-31.1,26.4
		c-8.5,7.1-17.8,13.2-28.4,16.5c-12.1,3.8-22.7,10.6-34.3,15.5c-11,4.7-21.8,10.1-32.7,15.1c-27.2,12.5-54.4,24.9-81.6,37.5
		c-24.1,11.2-47.9,22.8-72.1,33.8c-7.2,3.3-14.6,7.9-23.1,5.8c-6.5-1.6-12.8-4.1-18.9-6.8c-13.7-6.1-27.8-11.2-42-15.8
		c-17-5.4-34-10.8-51.2-15.8c-27.2-8-54.1-17-80.5-27.3c-4.3-1.7-8.5-3.7-12.9-5.1c-6.1-1.9-8.8-9.8-5.7-15.6
		c4.9-9.2,11.5-17.1,17.8-25.3c2.1-2.8,2.7-4.2-0.7-6.8c-8.2-6.4-17.1-11.4-27-14.6c-10.3-3.4-16.4-10.3-18.8-20.7
		c-0.4-1.7-0.3-3.8-2.5-4c-9.9-0.9-16.2-7.9-23-14c-5.6-5-11.3-9.1-18.5-11.9c-9.9-3.9-17.1-10.9-19.4-21.9c-0.6-3.1-3-5-4.8-7.2
		c-6.9-8.8-7.3-18.6-4.3-28.9c0.9-3.1,1.2-6.4,2.9-9.3c1-1.6,0.3-3.3-0.6-4.9c-4.6-7.8-8.5-15.8-8.7-25.1c0-0.3,0-0.7-0.2-1
		c-9.9-15.6-6.8-33.6-8.9-50.6c-0.8-6.5-2.6-12.7-6.6-17.7c-9.6-12.1-11.3-25.5-7.7-39.9c0.5-2,0.2-3.7-0.9-5.4
		c-2.6-4.1-5-8.3-7.5-12.3c-7-11.1-6.4-26.2,5.5-34.6c2.9-2,3.8-4.5,3.8-7.9c0-7.5,2.4-11,9.5-13.5c19.8-7.1,39.3-15.2,59.4-21.7
		c5.1-1.6,9.9-3.8,14.9-5.7c5.4-2.1,7.1-7.8,10.9-11.5c7.2-7,12.2-15.8,18.7-23.4c11.7-13.6,22.7-28.3,39.7-36.3
		c6.1-2.8,12.8-3,19.2-3.8c13.6-1.8,27.7-2.6,41.2,0c21.3,4.2,41.7,11.6,61.5,20.5c11.7,5.2,21.6,13.4,31.8,21
		c3.4,2.6,6.8,5.3,10.2,7.9c0.6,0.5,1.6,0.9,2.3,0.8c1.3-0.4,0.8-1.7,0.7-2.7c-0.2-2.6-0.7-5-1.7-7.5c-3.5-8.7-2.1-14.2,5.2-20.1
		c2.7-2.2,5.6-4.1,8.5-5.8c9.5-5.6,18.3-12.2,26.9-19.1c7.5-6,15.8-11,24-15.9c17.8-10.8,34.8-22.9,53.2-32.8
		c6.4-3.4,13.1-5.7,20.2-7.4c6.4-1.5,12.6-3.4,19.3-2.9c8.4,0.6,14.7,4,19.8,11.1c9.9,13.6,20.2,27.4,34.9,36.3
		c8.4,5.1,16.4,10.8,24.1,16.8c10.5,8.3,17.2,19.6,23.8,30.8c7.2,12.3,13.8,25,20.5,37.6c3.1,5.9,6.2,11.9,8.7,18.1
		c3.6,8.8-5.2,23.9-14.8,26.1c-12,2.7-12.1,2.7-11.9,15.3c0.3,13.6-2.1,10.9,12.5,12.7c8,1,16.1-1,23.9,2.7
		c8.2,3.9,12.5,14.2,8.9,22.6c-3.9,9.2-12,13.6-20.4,17.2c-5.4,2.3-9.3,5-8.4,11.6c0.2,1.6-0.4,3.4-0.9,5
		c-2.6,10.2-1.2,19.8,4.4,28.6c9.1,14.3,22.7,22.4,38.6,27.7c10.8,3.6,21.8,6,33,8c12.1,2.2,22.7,12.8,23.7,26
		c0.8,10.3,5.6,19,9.2,28.2c6.6,16.9,19.5,27.9,33.8,37.8c8.3,5.7,12.8,13.1,11.5,23.6c-0.9,8-5.4,13.8-11.1,18.5
		c-7.6,6.2-16.2,10.1-26.5,9.6C836.2,650.1,829.1,650.4,822,650.4L822,650.4z M331.6,251.8c-9.9,0.6-19.4,2.3-29.1,2.2
		c-9-0.1-17.4,2.2-24.4,8.3c-4.5,4-8.7,8.3-13.1,12.5c-12.2,11.8-20.4,26.8-31.8,39.3c-4.3,4.7-7.8,10.4-13.9,12.9
		c-10.2,4.2-20.6,7.8-30.9,11.6c-14,5.1-28.1,10.2-42.1,15.2c-3.4,1.2-5.1,3.3-4.7,7c0.8,6.3-1.9,10.3-7.4,13.4
		c-6.7,3.9-8.3,10.2-5.2,17.3c1.2,2.7,2.3,5.5,4.2,7.7c7.2,8.4,9,17.8,6.2,28.3c-0.2,0.7-0.3,1.4-0.3,2c-0.8,7,0.6,13.3,4.9,18.9
		c4.5,5.9,9.1,12.2,9.8,19.7c1,12.7,3.5,25.3,3.5,38.1c0,5,1.1,10,5.3,13.5c1.9,1.6,2.2,3.9,1.9,6.2c-0.7,6.3,1.2,11.7,4.7,17
		c4.6,7,5.6,14,2.1,22.4c-3.9,9.2-4.5,18.8,3.8,26.8c2,1.9,3,4.6,3.8,7.3c1.7,6.5,5.5,11.5,11.8,14.1c8.5,3.5,16.6,7.4,22.9,14.4
		c2.7,2.9,5.8,5.4,8.8,8c3.2,2.7,6.8,4.7,11.3,4.2c5.4-0.6,8,2.2,8.8,7.2c0.3,1.7,0.6,3.4,0.9,5.1c1.1,6.6,4.8,10.8,11.2,12.7
		c14.3,4.2,26.1,12.9,37.5,22.1c5.7,4.6,5.6,6.9-0.1,11.9c-8.2,7.1-13.7,16.3-19.7,25.1c-1.3,1.8-1.1,3.1,1.1,4
		c1.8,0.7,3.4,1.6,5.2,2.3c13.6,5.4,27.1,10.9,41,15.4c15.8,5.1,31.6,10.4,47.6,14.8c18.2,5,36.2,11.1,54.1,17
		c17.1,5.7,33.7,12.8,50.5,19.5c2.6,1,4.8,1,7.4-0.1c11-4.5,21.6-9.8,32.4-14.7c34.1-15.6,67.9-31.9,102.1-47.1
		c27.2-12.1,54-24.9,80.9-37.6c7.9-3.8,16.3-6.4,24.3-10c11.6-5.3,20.5-14.5,29.8-22.9c10.1-9.1,20.4-17.8,33.6-22.7
		c6.8-2.5,13.6-1.7,20.4-2.6c10.6-1.3,21.4-3.2,31.9-0.9c13.5,2.9,24-1.3,32.4-11.6c4.6-5.6,4.3-11-0.7-16.2
		c-1.5-1.6-3.4-2.9-5.3-4.2c-15.9-10.4-29.2-23-35.8-41.5c-3.4-9.4-8.6-18.1-9.5-28.6c-0.8-8.6-4.5-16.7-15-18.6
		c-5.7-1-11.3-2.8-17-4c-18.1-3.8-35.1-9.9-49.3-22.2c-12.1-10.4-20.1-22.7-19.6-39.7c0.2-8.4,2.4-16.3,3.2-24.5
		c0.4-4.4,2.8-7.1,6.8-8.9c6.1-2.7,12.2-5.6,17.6-9.7c3.2-2.4,4.3-5.7,3-9.6c-1.2-3.6-4.2-3.4-7.2-3.8c-10.1-1.3-20.2-2.5-30.4-2.1
		c-3.2,0.1-5.5-1.2-6.3-4.8c-1.5-7.8-2.4-15.7-2.9-23.6c-0.9-13.8,4.4-19.6,17.7-20.1c8.3-0.3,12.7-9.1,8.4-17.2
		c-8.2-15.7-16.5-31.4-24.9-47c-10.1-18.5-23.9-33.6-42.6-43.9c-17.3-9.5-28.8-25-40.4-40.2c-4.2-5.5-8.6-8.7-15-7.8
		c-8,1.1-16.1,2.7-23.3,6.2c-26.4,12.9-50,30.5-75,45.7c-9.4,5.7-17,14-26.5,19.7c-5.6,3.4-11.1,7-16.6,10.6c-1.9,1.3-4,2.8-2.4,5.4
		c2.1,3.3,2.1,7.2,3.5,10.8c2.7,6.5,0.7,12.7-4.6,16.6c-4.4,3.2-8.7,2.6-14.9-2.1c-11.9-8.9-23.2-18.5-36.1-25.9
		c-14.9-8.4-31.3-13.3-47.4-18.6C349.8,254.5,340.7,252.5,331.6,251.8z"/>
</g>
</svg>
