<?xml version="1.0" encoding="utf-8"?>
<!-- Generator: Adobe Illustrator 23.0.5, SVG Export Plug-In . SVG Version: 6.00 Build 0)  -->
<svg version="1.1" id="Capa_1" xmlns="http://www.w3.org/2000/svg" xmlns:xlink="http://www.w3.org/1999/xlink" x="0px" y="0px"
	 viewBox="0 0 1000 1000" style="enable-background:new 0 0 1000 1000;" xml:space="preserve">
<style type="text/css">
	.st0{stroke:#FFB591;stroke-width:40;stroke-miterlimit:10;}
</style>
<g>
	<path class="st0" d="M585.8,320.5c-12.8-8.2-17.1-21.4-22.6-33.6c-1.7-3.7-3.3-7.4-3.7-11.7c-0.4-4-4.5-4.7-7.8-5.4
		c-16.8-3.5-31.8-10.4-43.6-22.9c-9.5-10-10.8-22.7-9.3-35.8c0.2-1.8,0.7-3.5,1-5.3c1.2-5.7,1.2-10.2-4.1-15.1
		c-9.2-8.6-8-20.5-6-31.9c0.4-2.4,1.5-4.8,2.4-7.1c1.3-3.4,3.1-6.8,6.6-8.2c8.3-3.2,15-9.6,24.2-11.1c3.4-0.6,6.6-1.4,10-0.1
		c1.3,0.5,2.8,0.8,4.1,1.2c12,3,21.8,0.3,30.5-9c10.5-11.2,24.7-12.3,38.9-11c5.4,0.5,8.8,4.7,11,9.4c2.9,6.2,7.8,10.1,14.4,11.1
		c8.2,1.2,14.4,5.7,20,11c8.1,7.7,15,16.5,22.7,24.5c9.9,10.3,19.1,21.5,30.7,30.1c3.2,2.4,5.5,5.6,7.8,8.8
		c2.8,3.9,4.1,8.4,1.5,12.7c-2.8,4.6-8,5.2-12.9,5c-7.4-0.3-14.3-3.1-21.2-5.6c-4.8-1.7-5.7-1.2-5.9,3.8c0,0.2,0,0.4,0,0.5
		c0.2,11.5-2.3,13.6,12.1,13.5c6.2,0,12.6,4.6,13.8,9.6c1.7,7.2,2.5,14.4-4.6,19.6c-2.2,1.7-2.9,2.9-1.7,6.1
		c2.9,7.9,3.1,16-2.3,23.1c-3.4,4.4-2.5,7.4,1.5,10.3c5.6,4.1,10.1,8.8,11.3,16.3c0.8,4.7,5.5,7,9.3,9.2c5.5,3.1,11.1,6,16.9,8.4
		c5.8,2.3,11.8,0.7,17.4-1c12.2-3.8,27.6,2.9,32.5,14.5c3.8,8.9,7.7,17.6,5.6,27.9c-0.8,4.1,3.4,6.9,6,9.7
		c5.1,5.5,7.5,11.7,6.4,19.2c-0.9,6.2-5.4,10.3-9.4,14.1c-14.5,14-30.5,25.8-51,29.6c-3,0.6-6.1,0.3-9.1,0.5
		c-5.5,0.3-9,2.9-10.5,8.4c-1.3,4.7-3.3,9.2-6.2,13.1c-2.5,3.4-3.1,7.1-2,10.7c3.4,10.6,4.8,21.7,7.4,32.5
		c2.9,11.9-0.8,22.6-5.7,33.3c-6.3,13.6-9.7,27.9-12.2,42.7c-2.4,14.1-2.5,28.2-2.9,42.4c-0.3,10.1,3.9,16.7,12.9,20.8
		c3.1,1.4,6.1,3.1,9.1,4.8c9.8,5.6,13.5,15.5,10.1,26.3c-2.2,7.1-5.5,13.7-8.7,20.4c-3.1,6.5-3.1,12.4,2.5,17.1
		c10.8,9.1,12.6,22.2,16,34.6c1.5,5.3-3,12.2-8.3,14.1c-2.9,1-5.8,2-8.9,2c-24.5,0.1-49,1.2-73.5,1.3c-13.1,0-22.9-4.8-30-15.7
		c-4.6-7-10.8-11.8-18.5-15.1c-4.6-1.9-9.2-4.1-11-9.6c-1-3.1-3-2.5-4.6-0.1c-1.3,1.9-1.5,4-1.6,6.2c-0.3,7.3-3.1,13.9-5.4,20.6
		c-3.2,8.9-9.8,15.1-18.6,17.4c-12.1,3.1-23.6,7-34,14c-1,0.7-2.5,1.4-3.5,1.2c-7.1-1.9-6.7,2.8-6.6,7.3c0,0.2,0,0.4,0,0.5
		c0.6,15.3,1.1,21.4-19.3,28.6c-2.9,1-5.6,2.5-8.3,3.8c-3.4,1.6-5.6,3.8-6.2,8c-0.8,5.3-3,10.1-7.5,13.8c-6.1,5-10.3,11.6-13.5,18.7
		c-4.3,9.6-12.7,13.2-21.9,14.5c-12.1,1.7-24,3.7-36,5.9c-9.9,1.9-20.1,0.2-30.2,0.9c-8.5,0.5-16.3-1.2-22.9-6.4
		c-8.9-6.9-15.7-15.5-14.5-27.6c0.6-5.8,0.7-11.7,2.7-17.5c3.4-9.8-1.3-18.3-6.1-26.4c-4.4-7.5-6.1-15.3-3.1-23.6
		c0.7-2,0.9-3.8-0.1-5.7c-1.6-3.1-2.3-6.6-2.1-9.9c0.4-7.2-3.2-12.3-8.7-15.8c-7.8-4.9-11-12.5-13.7-20.6c-0.2-0.7-0.4-1.5-0.2-2.1
		c5.2-13.7-0.5-25.6-7.2-36.7c-4.7-7.7-6.2-15.6-5.9-24.1c0.3-9.4-0.8-18.7-1.2-28c-0.1-1.8-0.2-3.6-1.2-5.2
		c-8.2-12.7-16.5-25.3-24.7-38c-1.1-1.7-2.8-2.6-4.9-2.9c-15.9-2.2-25.3-13.4-22.8-28.9c1.4-8.4,0.3-17.3,4.2-25.4
		c1.3-2.7-1.3-3.8-3.2-4.8c-7.1-3.5-13.9-7.5-19.9-12.7c-6.5-5.7-9.4-13.4-10.1-21.4c-0.5-5.5,2.7-11.1,5.7-16c3-5,2.4-9.7-1.9-13.8
		c-6.7-6.5-7.8-18.8-2.1-26.2c3.7-4.8,9.4-5.6,14.9-6.5c3-0.5,6.1-0.6,9.1-1.3c5.4-1.3,7-6.4,3.3-10.7c-1.5-1.7-3.4-3.2-5.3-4.6
		c-8.2-6-12.9-14.2-15.2-23.9c-1-4.2,1.5-7.7,3.4-11.1c1.4-2.5,3.3-4.8,5.5-6.6c4.1-3.4,7.2-7.3,9.2-12.4c3.4-8.8,12.2-10,21.4-6.2
		c13.7,5.6,27.9,9.9,42.1,14.3c10.2,3.2,20.4,6.7,30.4,10.3c13,4.7,25.8,9.5,38.7,14.4c3.4,1.3,5.9-0.9,8.6-2.1
		c13.8-6.4,27.6-13.2,41.4-19.7c20.4-9.7,40.9-19.2,61.3-29c9.5-4.6,18.8-9.5,28.9-13c7-2.4,12.4-8.5,18-13.6
		c5.2-4.7,10.3-9.5,16.8-12.5c9.1-4.1,18.5-6.7,28.6-6.4C574.4,320.6,580.1,320.5,585.8,320.5z M674.4,767.9
		c15.6-0.1,31.3,0.7,46.9-2c3.5-0.6,5.2-1.8,4.5-5.6c-1.4-7.7-3.4-15.1-9.1-20.9c-4.3-4.4-7.6-9.6-10.4-15c-1.6-3.1-1.6-6-0.3-9.3
		c2.8-7.4,6.5-14.4,9.2-21.8c4.4-12.1,3.8-16.1-7.5-21.1c-15.9-7-23.6-19.2-23.6-37c0.1-15.7,2.8-31,5.2-46.5
		c2.5-16.1,7.4-31.2,14.7-45.7c2-3.9,3-8.8,2.6-13.1c-1.1-11.6-3.3-23-6.4-34.2c-2.6-9.4-4.3-18.6,2.9-27c1.8-2.1,2.8-5.1,3.4-7.8
		c2.5-10,12.9-18.1,23.4-18.2c4.7,0,9.6,0.9,13.9-0.9c14.9-6.6,28.4-15.5,39.5-27.6c5.6-6.1,5.5-6.3,0.3-13
		c-1.9-2.4-3.9-4.7-5.8-7.1c-3.7-4.5-6-9.2-4.5-15.4c1.7-6.6-0.3-12.9-3.4-18.7c-3-5.7-7.8-9.1-14.6-7.9c-6.2,1.2-12.6-0.1-18.6,2.6
		c-1.8,0.8-3.9,0.2-5.8-0.5c-10.6-3.6-20.1-9.5-29.6-15.1c-3.7-2.2-7.4-5.6-7.9-9.9c-0.7-5.9-4.3-9.3-8.2-12.7
		c-10.4-8.9-10.3-17.4-3.2-27.4c2.8-3.9,2.5-7.5,0-11.4c-3.4-5.5-2.7-11,1.8-15.8c1-1,2-2.1,3.1-3c1.6-1.3,2.8-2.8,2.3-5.1
		c-0.6-2.5-2.8-2.5-4.7-2.9c-6.2-1.1-11.8-0.2-16.2,4.8c-1.8,2-4.4,3.2-6.7,1.3s-1.7-4.7,0.2-6.7c2.4-2.6,2.3-5.3,1.9-8.5
		c-0.6-4.6-1.8-9.2-0.9-13.9c1.3-6.5,0.8-12.3-6.6-15.2c-1.4-0.6-2.5-2-3.7-3.2c-1.6-1.5-3.3-3.2-2.2-5.6c1-2.1,2.8-3.8,5.3-4.1
		c3.9-0.5,7.1,0.7,9.2,4.2c1.6,2.7,3.8,4.2,7,4.2c6.1-0.2,12.1-0.1,17.9,2.9c2.1,1.1,4.6,1.9,7,2.7c1.1,0.4,2.6,1.2,3.3-0.3
		c0.6-1.1-0.6-2-1.4-2.7c-3.7-3.4-7.7-6.6-11.2-10.1c-13.1-13.3-26.3-26.6-38.5-40.8c-5.3-6.1-11.1-13-19.4-13.9
		c-11.5-1.2-18.2-7.4-23-17c-1.1-2.2-2.6-4.6-5.1-4.3c-8.6,1.1-17.7,1.1-24.8,7.4c-3.6,3.2-7.3,6.5-10.9,9.7c-7.3,6.4-16.5,4.9-25,5
		c-3.7,0-8.1-1.7-12.1-1.8c-4.7-0.1-10.2-1-12.7,5.3c-1,2.5-3.9,3-6.5,2.9c-2.8,0-5.8,0.5-6.6,3.6c-1.3,5.2-3.1,10.4-2.7,15.9
		c0.6,8.7,3.8,11.7,12.4,11.7c3.8,0,7.6,0,11.3,0.2c2.2,0.1,4.3,1,4.9,3.5c0.5,2.3-0.9,3.8-2.7,4.8c-1.7,1-3.4,2-5.2,2.8
		c-6.5,3-11,7.2-10,15.3c0.5,4.8,0.1,9.7,0.1,14.6c0,6,2.6,10.9,6.9,14.7c11.4,9.7,24.4,16.1,39.2,18.7c8.2,1.5,12.7,4.9,13.2,10.7
		c0.8,10.6,6.7,19.2,11.1,28.3c3.7,7.6,11.4,11.8,17.7,17.1c5.4,4.5,5.2,10.7-0.8,14.6c-3.1,2-6.6,2.7-10.3,2.7
		c-6.8,0-13.7-0.2-20.5,0.2c-10.9,0.6-21.3,3-30,10.3c-10.4,8.7-19.3,19.4-33.3,23.2c-4.3,1.1-8.4,3.2-12.3,5.3
		c-21.5,11.6-44.1,21-66,31.7c-15.7,7.6-31.5,15-47.2,22.5c-6.8,3.2-12.9,5.7-20.9,1.7c-10.2-5.1-21.2-8.5-32-12.3
		c-10.1-3.6-20.5-6.3-30.7-10c-15.8-5.7-32.2-9.9-47.7-16.5c-2.1-0.9-4.3-0.4-5,1.8c-2.3,7.2-7.7,12-12.9,17
		c-3.8,3.7-3.6,7.9-0.8,12.2c3.2,4.9,7.4,8.9,12.1,12.2c7,5,8.8,10.5,7.2,19.4c-1.9,11.2-7.7,14.2-16.6,14.3c-4.7,0-8.8,1.7-13,3.1
		c-3.6,1.2-4.7,6.4-1.5,8.3c8.5,4.9,6.7,14.1,9.7,21.3c1.6,3.7-0.3,7.4-3.8,10.3c-5.7,4.8-5.9,9.2-2.4,15.8c2.2,4.1,5.3,7.1,9.1,9.8
		c7.4,5.2,15.8,8.4,24,12.2c5.6,2.6,5.9,7,1.1,10.8c-1.7,1.4-3,2.7-4.1,4.8c-4.7,9.3-2.9,19.1-2.5,28.6c0.2,5.5,6.7,9,12,7.2
		c3.4-1.1,5.8-0.9,7.9,2.3c8.7,13.2,17.4,26.4,26.3,39.5c5.2,7.6,8.4,15.5,7.4,25.1c-0.8,7.5,0.1,15.1-0.2,22.7
		c-0.2,5.3,1.2,10,4.1,14.2c7.7,11.4,12,23.7,10.2,37.6c-1.2,8.9,2.8,14.8,9.3,20.4c6.6,5.6,13.8,11.5,11.7,22
		c-0.2,1.2,0,2.6,0.6,3.7c3.1,6.3,2.6,13,2.1,19.6c-0.5,6.4,1.5,11.9,4.6,17.4c6.4,11.4,8.4,23.5,3.3,36c-6.3,15.4,6,28.3,17.6,30.8
		c9.5,2.1,19.4,1.1,29,0c11.6-1.4,23-3.8,34.6-5.1c10-1,19.6-3.3,23.5-14.6c1.5-4.3,4.7-7.6,7.7-11c4.3-4.9,9.1-9.4,9.4-16.8
		c0.2-4.8,3.8-8,8.4-10.4c6.8-3.6,13.9-6.6,21-9.7c3.6-1.6,5.7-4.4,4.9-8.6c-1.1-6,0.5-11.8,0.8-17.7c0.2-4.6,3.6-7.5,7.4-9.9
		c3.2-2,5.3-0.6,7.8,1c1.7,1.1,3.4,0.3,5-0.9c2.2-1.6,4.3-3.3,6.6-4.6c5.7-3.3,12-4.7,18.3-5.9c9.8-1.9,16.5-7.5,19.1-16.9
		c2.8-10.5,4.7-21.2,6.8-31.8c0.8-3.7,3.1-5.8,6.5-4.5c7.1,2.9,14.8,5.1,18.4,13c0.9,2,2.3,3.7,4.4,4.5c11,4,19.7,10.7,25.8,20.9
		c3.4,5.8,8.7,9.1,16.2,8.8C655.7,767.6,665.1,768,674.4,767.9z"/>
</g>
</svg>
