<?xml version="1.0" encoding="utf-8"?>
<!-- Generator: Adobe Illustrator 23.0.5, SVG Export Plug-In . SVG Version: 6.00 Build 0)  -->
<svg version="1.1" id="Capa_1" xmlns="http://www.w3.org/2000/svg" xmlns:xlink="http://www.w3.org/1999/xlink" x="0px" y="0px"
	 viewBox="0 0 1000 1000" style="enable-background:new 0 0 1000 1000;" xml:space="preserve">
<style type="text/css">
	.st0{stroke:#85CFF3;stroke-width:40;stroke-miterlimit:10;}
</style>
<g>
	<path class="st0" d="M260.4,371c-4.1-3.1-8.2-6.2-12.3-9.3c-1-0.7-2.5-1.2-2.9-2.1c-2.9-6.1-8.1-10.5-11.8-15.8
		c-6.3-8.9-13.7-17.5-15.5-29.1c-0.5-2.9-3.8-5-4.5-8.1c-1.3-5.8-3.1-11-0.9-17.6c2.1-6.3,1.8-13.7-1-20.5c-3.4-8.3,0.3-16.2,8.8-19
		c10.9-3.5,22-5.9,33.2-8.1c1.2-0.2,2.4-0.6,3.4-1.2c26-15.3,51.8-30.7,77.9-45.8c22.3-12.9,44.9-25.3,67.3-38.1
		c16.6-9.5,33.1-19.3,49.6-28.9c5.8-3.4,12.1-3.3,18-0.4c3.3,1.6,5.9,1.4,8.7-0.7c6.3-4.7,12.9-5.7,20-1.8c2.6,1.4,5.3,0.7,8.1-0.5
		c9.2-4,14.3-2.5,20.9,5.3c1.8,2.1,4.9,3.2,7.3,4.9c10,7,19.8,14.1,31.9,17.4c4.8,1.3,9,4.5,13.4,7c2.9,1.6,4.6,4.2,5.8,7.2
		c2.4,5.8,4.7,11.6,7.4,17.2c3.3,6.8,2.4,14.2-2.8,19.5c-5.4,5.5-2.8,10.6-1.2,15.8c2.5,8.6,8.8,15.9,8.9,25.3
		c9.3,12.6,5,27.2,5.7,41c0.3,6.9,2.1,13.8,0.4,20.8c-1.6,6.7-3.2,8.3-10,9.3c-1.6,0.2-4-0.8-4.6,1.4c-0.5,1.8,1.3,3.1,2.4,4.4
		c2,2.4,4,4.9,6.2,7.1c9.6,9.2,11.1,21.3,10.8,33.3c-0.5,16.1,3,31.9,2.6,48c-0.1,3.5,1.7,5,5.4,5.6c12.3,2.1,24.6,3,37,2.8
		c14.1-0.3,28,2.9,42.2,2.6c16.4-0.4,32.5,3.8,49,2.9c4.5-0.2,9,0.7,13.5,1.3c5.6,0.8,11,0.8,16.6-0.7c13-3.6,21.4,2.8,21.4,16.3
		c0.1,12.5-2.5,24.2-12.1,33.3c-1,0.9-2,2.3-2.1,3.5c-0.5,7.7-1.7,15.6,0.3,22.9c1.7,6,2.3,11.9,2.5,18c0.2,6.1,2,10.2,7.8,14.4
		c6.6,4.9,15.1,6.9,20.5,13.6c1.9,2.5,5.3,2.6,8.2,2.7c10,0.3,17.2,6,24,12.3c0.5,0.5,1.1,1.1,1.1,1.7c0.4,8.3,5.5,15.3,6.4,23.4
		c1.6,13.6,4,27,11.7,38.9c0.7,1.1,1.5,1.9,2.8,2.2c6.9,1.6,8.3,6.9,8.2,12.8c-0.1,5.4-1.7,10.2-7.8,12.3c-4.9,1.6-4.8,6.9-6.3,10.7
		c-3.8,9.6-7.2,19.5-10.3,29.3c-2.2,6.8-6.4,13.1-2.1,21.3c3.6,6.8,0.2,14.6-6.3,18.7c-5.1,3.2-6.5,8.6-9,13.2
		c-7.6,14.1-14.5,28.6-21.9,42.7c-2.1,4-1.7,6.7,1.5,9.6c4.2,3.9,7.9,8.4,12.3,12.2c10.9,9.6,4.9,26.4-7.6,28.9
		c-4.9,1-7.5,5.5-11.8,7.5c-2.7,1.2-5,3.2-7.6,4.6c-6.4,3.4-14.1,0.1-15.7-6.8c-1.3-5.6-2.7-11.3-2.9-17c-0.2-5.2-2.4-9.8-2.8-14.8
		c-0.2-2.3-2-3.4-3.8-4.6c-16.4-10.8-32.7-21.7-49.1-32.6c-5.8-3.8-11.4-7.9-17.2-11.7c-4.4-2.9-9.2-4.2-14.7-4.3
		c-26-0.5-51.9-2.6-77.9-2.1c-7.6,0.2-14.6,2-21.7,4.5c-7.6,2.7-15.8,4.1-23.5,6.5c-16.7,5.2-33.8,7.2-51,9.3
		c-12.2,1.5-24.4,3.6-36.5,5.6c-10.3,1.7-20.7,2.2-30.9,4.8c-3.3,0.8-5.2,2.6-6.2,5.7c-3.4,10.6-8,20.8-12.4,31.1
		c-2.8,6.5-7.7,11.6-11.5,17.4c-6.4,9.5-13.2,18.8-19.8,28.2c-2.5,3.6-5.7,5.7-10.5,5.7c-32.6-0.1-65.3-0.1-97.9-0.2
		c-4.8,0-9.2-1.8-13.2-4.3c-2.2-1.4-3.8-1.5-6.1-0.1c-7.7,4.8-25.5,2.5-31.9-4c-3.7-3.7-3.9-8.6-4-13.2c-0.3-9.8,0.7-19.8-1.4-29.2
		c-4.5-19.9-1.9-40.3-4.6-60.3c-1.1-8.4-1.1-17-1.2-25.6c0-3.2-0.7-3.4-3.6-2.5c-10.8,3.1-18.5-0.9-22.1-11.6
		c-1.3-3.7-4-6.1-6.7-8.5c-11.2-9.9-19.3-21.5-21.9-36.8c-0.9-5-2.4-9.6,0.3-14.5c1-1.8,0.3-4.6-1.8-5.5c-8-3.4-9.2-11.3-12.6-17.7
		c-2.4-4.6-5.2-8.9-8.1-13.2c-7.1-10.5-12.6-22-16.6-34c-1.4-4.2,1.7-7.3,3.8-10.4c1.1-1.7,2.7-3.3,4.3-4.6
		c11.2-9.2,16.4-22.5,23.5-34.4c1.9-3.1,3-6.8,6.4-8.7c4.3-2.3,3.4-5.2,0.9-8c-1.3-1.5-3.1-2.8-4.9-3.8c-9.9-5.5-18.7-12.7-28-19.1
		c-3.8-2.7-6.7-6.4-10.7-9c-2.7-1.7-4-4.6-4.1-8c-0.3-12.9,1.1-25.6,5.4-37.9c0.5-1.5,1-3.2,2.1-4.2c9.2-8.8,6.8-19.5,4.8-29.9
		c-1.5-7.6-2.1-15.3-6.1-22.5s6.3-26.5,16.9-25.5c16.3,1.6,32.9-0.5,49.1,1.6c18.6,2.4,37.3,1,55.8,2.6c1.2,0.1,2.4-0.2,3.6-0.3
		C260,371.8,260.2,371.4,260.4,371z M347.8,864.7c15.1,0,25.9-0.1,36.7,0.1c3.8,0.1,6.6-0.9,8.8-4.4c2.6-4.1,5.8-7.8,8.6-11.8
		c6.1-8.7,12.6-17.2,18-26.3c7.5-12.6,11.9-26.7,17-40.4c1-2.6,2.2-4.4,5.2-5.1c10.3-2.4,20.9-2.9,31.4-4.7
		c12.9-2.3,26.1-3.6,39.1-5.8c12.5-2.1,25.1-3.2,37.6-5.8c13.3-2.8,26-7.4,39.1-10.7c8.6-2.2,16.9-5.1,26.1-4.6
		c9.7,0.5,19.5,0.6,29.3,0.8c18.3,0.4,36.6,0.2,54.9,0.3c2.5,0,4.7,0.7,6.8,2.2c12.8,8.7,25.7,17.3,38.5,25.9
		c14,9.4,28.1,18.8,42.1,28.2c1.6,1.1,3.4,2.1,3.3,4.3c-0.6,9.5,1.9,18.6,3.3,27.9c0.8,5.6,0.5,5.2,5.2,2.5
		c5.1-2.9,8.4-8.6,14.8-9.4c2.7-0.4,5.1-1.5,6-4.4c0.8-2.8-1-4.6-2.7-6.4c-5.7-5.9-11.4-11.8-17.2-17.6c-3-3-3.2-6.2-1.3-10
		c9.9-19.2,19.7-38.4,29.6-57.6c1.7-3.4,3.5-6.9,7.2-8.6c4.2-2,5.2-4.9,2.6-8.8c-3.1-4.7-3.4-9.3-1.2-14.7c3.7-9.2,6.7-18.6,9.9-28
		c2.7-7.8,5.3-15.8,8.3-23.5c1.2-3.2,1.9-7.5,6.9-7.4c1.2,0,2.7,0.4,2.8-1.4c0-1.6-1.5-1.8-2.7-1.9c-2.8-0.3-4.1-2.1-5.2-4.5
		c-3.5-7.4-7-14.8-10.8-22c-2.4-4.5-2.9-9-2.6-14c0.2-4.4,1.5-9.8-2.4-13.3c-3.2-2.9-4.1-6.1-4.1-10.2c0.1-6.1-5.3-12.5-11.5-12.3
		c-6.9,0.3-12.6-1.6-18-5.4c-4-2.9-7.3-6.8-12.6-7.5c-0.4-0.1-0.7-0.7-1.1-1.1c-4-3.9-8.3-7.4-13.5-9.8c-3.8-1.7-5.2-4.5-5.4-8.7
		c-0.3-7.8,1-15.8-2.1-23.3c-3.9-9.3-3-18.7-2.2-28.3c0.5-5.4,2.5-9.6,6.7-13c7.5-6.1,6.4-15.6,8.8-23.7c0.5-1.6-0.2-3.4-1.5-4.9
		c-1.1-1.3-2.5-2.2-4.1-1.3c-7.8,4.1-16.2,2.8-24.1,1.8c-22.7-3.1-45.6-2.9-68.3-4.5c-21.7-1.5-43.4-4.3-65.2-3.7
		c-4.8,0.1-9.7-0.6-14.6-1.2c-4.3-0.5-6.5-2.5-7-7.4c-2.2-21.7-1.7-43.5-4.3-65.2c-0.7-6.1-1.5-11.7-6-16.8
		c-7.3-8.2-13.7-17.1-20.5-25.7c-1.4-1.8-3.1-3.6-2.1-6.1c1.1-2.7,3.7-2.1,5.9-2.2c5.1-0.1,10.1-0.1,15.2,0c2.9,0.1,4-0.7,3.9-3.8
		c-0.3-10.3-0.3-20.6-0.4-30.9c-0.1-6.4,1-13-4.5-18.1c-0.9-0.8-0.9-2.6-1.1-4c-0.6-3.8-2.3-7.3-3.4-10.9c-2.7-9-9.3-16.7-8.2-27.1
		c0.5-4.5,0.5-8.3,4.3-11.6c3.4-2.9,4.8-6.6,2.2-11.2c-2.6-4.7-5.2-9.5-6.4-14.8c-0.4-1.7-1.8-2.6-3.2-3.3c-5.1-2.5-10-5.4-15.5-7.4
		c-5.6-2.1-11.4-4.2-16.5-7.7c-6.3-4.3-11.8-9.9-19.3-12.2c-1.8-0.5-2.8-2.2-3.4-3.8c-1.2-3.7-3.1-3.5-6.3-2.1
		c-5.6,2.4-11.4,4.5-17.4,0.9c-3.3-2-6.1-1.3-9.1,0.8c-5.5,3.7-12.1,5.4-17.8,2c-5.4-3.2-9.1-1.3-13.4,1.2
		c-14.9,8.7-29.7,17.5-44.6,26.1c-23.2,13.4-46.5,26.7-69.6,40.1c-21,12.1-41.8,24.5-62.8,36.4c-7.6,4.3-14.6,9.8-23.9,11.2
		c-7.3,1.1-14.3,4.1-21.8,5.2c-6.9,1-7.9,2.7-7.1,9.7c0.6,5.3,0.9,10.7,0.7,16.1c-0.4,8.8-2.8,18.3,4.8,25.7
		c0.9,0.8,0.7,2.7,1.2,3.9c1.7,4.2,1.5,9.2,5.2,12.3c5.7,4.9,7.8,12.7,14.2,17c0.9,0.6,1.6,2,1.8,3.1c0.8,4,3.6,6.2,6.7,8.3
		c2.7,1.9,5.5,3.7,8.2,5.7c4.8,3.6,9.3,7.5,8.9,14.4c-0.1,1.9,1,3.3,2.2,4.6c1.1,1.2,3.2,2.1,2.3,4.2c-0.9,1.9-3,1.5-4.6,1.6
		c-22.2,0.9-44.2-2.9-66.3-2.6c-18,0.2-35.7-3.3-53.7-2.7c-6.1,0.2-10.9,6.7-8.7,12.3c3.9,9.7,6.8,19.5,6.5,30.1
		c0,1,0.2,2.1,0.6,3.1c3.4,7.1-0.4,13.4-2.8,19.6c-2.1,5.5-6.5,9.7-7.3,16.3c-0.7,6-4.1,11.7-2.2,18.2c0.4,1.2,0.1,2.9-0.5,4.1
		c-1.4,3,0,4.5,2.4,5.9c1.2,0.7,2.4,1.5,3.3,2.5c7.2,7.7,15.8,13.8,24.8,18.7c11.1,6.1,18.1,15.4,24.9,25.3c3,4.4,1.5,7.1-3.8,8.1
		c-1.7,0.3-3.5,0.4-5.2,0.3c-3.6-0.1-6.3,1.5-7.2,4.9c-1.4,5.6-5,9.8-8.3,14.3c-2.5,3.5-5.1,7.2-6.7,11.2c-1.7,4.2-4.1,7.2-7.8,10
		c-3.6,2.7-9.3,5.6-7,11.5c3,7.6,6.3,15.2,10.8,21.9c5,7.3,10.1,14.6,13.4,22.8c1.7,4.2,4.4,6.8,7.8,9.2c7.1,5.2,8.8,11.7,5.6,19.8
		c-0.6,1.5-1.2,2.9-0.8,4.5c2.4,11.6,6.6,22.5,16,30.2c6.1,5,11.3,10.2,13.7,17.8c0.6,1.8,1.6,3.6,4.1,3.3c2.4-0.3,3.4-2,4-4.2
		c2.8-9.9,3.2-9.9,13.4-8.9c4.8,0.5,6.1,2.9,5.4,6.9c-1.1,6.4-1.1,12.9-0.7,19.3c1,16.6,0.8,33.1,1,49.7c0,1.6,0.3,3.1,0.4,4.7
		c2.2,19.5,6.5,38.9,4.8,58.7c0,0.2,0,0.3,0,0.5c0,3,0,6,3.6,7.4c4.6,1.7,9.9,4.2,13.8,0.9c3.7-3,8.3-4.4,11.6-7.8
		c2.1-2.2,4.1-1.2,4.5,1.4c1.2,8.6,7.7,9.1,14.1,9.2C315.1,863.8,333.6,865.5,347.8,864.7z"/>
</g>
</svg>
