<?xml version="1.0" encoding="utf-8"?>
<!-- Generator: Adobe Illustrator 23.0.5, SVG Export Plug-In . SVG Version: 6.00 Build 0)  -->
<svg version="1.1" id="Capa_1" xmlns="http://www.w3.org/2000/svg" xmlns:xlink="http://www.w3.org/1999/xlink" x="0px" y="0px"
	 viewBox="0 0 1000 1000" style="enable-background:new 0 0 1000 1000;" xml:space="preserve">
<style type="text/css">
	.st0{fill:none;stroke:#00B700;stroke-width:40;stroke-miterlimit:10;}
</style>
<g>
	<path class="st0" d="M102.8,483.4c-0.8-9.9,3.8-18.3,7.3-26.9c3.8-9.2,8.5-18,12.8-27c1.3-2.8,1-5.9,0.9-8.9
		c-1-17.3,3-34.1,4.9-51.1c1.3-12.3,2.8-24.5,4.5-36.7c1.7-12.4,1.7-24.9,4.3-37.2c0.7-3.4,0.7-7,0.8-10.5c0.2-7,2.4-13.8,3.2-20.7
		c1.9-17.2,17-21.6,30-18.5c4.2,1,8.2,2.7,12.3,4.1c0.6,0.2,1.5,0.2,1.9,0.6c8.9,9,21.5,8.3,32.1,12.7c8.4,3.5,16,9,21.5,16.8
		c0.7,1,1,2.9,2.8,2.1c1.4-0.6,1.8-1.9,2-3.3c0.9-7.3,3.6-14.1,5.8-21.1c2-6.5,6.4-10.3,12.1-12.4c10.2-3.7,19.7-3.8,29.7,3.1
		c10.1,6.9,16.7,16,22.8,26c2.2,3.7,5.3,5.7,10,6.3c13.7,1.9,27.2,4.9,39.3,12.2c5.8,3.5,12.4,1.6,18.6,1.2c1.7-0.1,2.1-1.9,2.4-3.5
		c1.9-11,4.8-21.8,9.2-32.1c2.8-6.6,6.6-12.2,12-17c8.2-7.2,17.5-6.1,27-4.2c1.3,0.3,2.5,1.3,3.8,1.3c10.8,0.1,17.5,7.1,23.4,14.6
		c3.6,4.7,7.5,6.2,13.2,6.2c134.2-0.1,268.3-0.1,402.5-0.1c3.3,0,6.7-0.1,10,0.1c4.9,0.3,9.2,4,9.8,8.6c0.7,5.2,0.9,10.4-1.1,15.4
		c-2.1,5.3-2.4,11-4.3,16.4c-3.9,11.1-6.6,22.6-10.2,33.9c-3.8,12-7.9,23.9-11.4,36.1c-2.8,9.9-6.4,19.7-9.5,29.5
		c-3.5,11-6.7,22.2-10.4,33.1c-3.9,11.6-7,23.5-10.8,35.1c-2.6,7.8-5.3,15.7-7.3,23.7c-1.8,7.4-4.4,14.6-6.6,22
		c-2.5,8.1-4.9,16.2-7.4,24.3c-2.6,8.5-5.5,17-8.1,25.6c-2.4,7.9-4.5,15.9-7,23.7c-2,6.1-2.7,13-6.5,18.2
		c-6.5,8.7-15.9,12.4-27.2,3.2c-6.7-5.4-13.6-9.9-21.7-12.9c-7-2.6-10.4-8.9-13.7-15.3c-3.1-6.1-3.4-12.5-3-19
		c0.3-4.6-1.2-6.6-6.2-6.6c-62.2,0.1-124.5,0.1-186.7,0c-3.1,0-6.1,0.3-8.2,2.9c-3.3,4.1-7.8,6.3-12.5,8.1c-7.3,2.8-13.7-0.3-19.8-4
		c-1.7-1-3.5-2.3-4.5-4c-4.4-6.9-11.2-6.2-17.9-5.9c-2.3,0.1-3.6,1-4.3,3.3c-2.1,6.7-5.5,12.5-10.9,17.1c-2.5,2.1-4,5-5.3,7.8
		c-5.5,12.1-13.1,22.8-20.9,33.5c-2.7,3.8-3.6,8.3-3.8,12.8c-0.7,16.7-7.5,30.6-17.4,43.7c-6.4,8.5-14.4,15.8-19,25.7
		c-3.1,6.6-4.6,13.1-5.3,20.5c-1.4,15.3-2.1,30.7-6.2,45.6c-1.8,6.3-3.9,13.2-10.3,17.2c-7.9,4.9-16,2.7-20.2-5.4
		c-6.1-12.1-13.4-23.4-21.4-34.3c-6.8-9.3-13.2-20.1-11.5-31.3c2.1-14.4-7.1-23-12.7-33.4c-6.4-11.9-12.3-24-15.3-37.2
		c-1.2-5.1-0.3-10.3-0.5-15.5c-0.2-8.8-10.1-19-18.8-20.2c-14.6-2-28.6-5.8-42-12.2c-9-4.3-18.6-7.5-28.7-7.9
		c-4.4-0.2-8.3-2.3-12.6-3c-10.1-1.6-20,0.6-30,0.2c-9.1-0.4-14-3.8-14.8-12.9c-1.3-15.3-8.9-27.6-17.5-39.7
		c-4.9-6.8-9.6-13.7-14.5-20.4C104.7,499,102.3,491.6,102.8,483.4z M170.5,565.9c11-0.4,21.7,2.2,32.5,3.9
		c11.7,1.8,22.5,5.6,33,10.2c11.9,5.2,23.8,9.6,37,8.8c0.8,0,1.7,0.1,2.5,0.4c12.2,3.6,25.9,22.1,26.1,34.9c0.1,7.1-1,14.3,1.9,21.3
		c4.5,11.2,10,21.8,16.9,31.7c5.8,8.3,9.8,16.8,8.4,27.4c-1.3,9.4,2.8,17.9,8,25.3c8.1,11.5,15.9,23.1,22.5,35.4
		c0.8,1.5,1,4.3,3.1,4.1c2.4-0.2,3.4-2.9,4.6-4.9c0.3-0.6,0.5-1.3,0.6-1.9c3.6-14.2,6.2-28.6,6.4-43.3c0.2-16.9,6.8-31.4,17.5-44.2
		c8.3-9.9,16.6-19.8,21.5-31.8c3.1-7.5,4.4-15.7,4.9-23.9c0.2-3.2,0.7-6.2,2.4-9.1c5.2-8.7,11.7-16.6,16.6-25.6
		c3.7-6.9,6.3-14.6,12.1-20c5.5-5.2,8.3-11.6,10.3-18.5c1-3.2,2.9-5.5,6.1-6c12.7-2.2,24.9-4,34.7,8.2c6.5,8.1,13.9,7.3,20.4-1
		c3.3-4.2,7-5.8,12.4-5.9c62.4-0.5,124.8,1.1,187.1,1c3.3,0,6.7,0,10,0c2.4,0,4.6,0.5,6.8,1.4c2.1,0.8,3.2,2.2,3.4,4.5
		c0.7,7.1,2.5,14.1,2.2,21.3c-0.2,7.6,3.9,12.9,10.9,15.8c7.1,3,13.9,6.4,19.6,11.7c1,0.9,2.1,1.7,3.3,2.3c4.4,2.3,8,1.3,9.6-3.3
		c3.9-11.3,7.4-22.8,10.8-34.2c3.3-10.9,6.4-22,9.7-32.9c3.6-11.7,7.4-23.4,11-35.1c3.3-10.8,6.6-21.7,9.9-32.5
		c3.6-11.8,7.2-23.5,10.9-35.3c3.5-11.1,7-22.2,10.6-33.2c3.2-9.8,7-19.4,9.5-29.4c2.1-8.1,5.1-15.8,7.4-23.8
		c3.2-11.3,7.1-22.5,10.4-33.8c2.9-9.9,5.6-19.9,8-29.9c1-4.3-0.1-5.6-4.1-5.5c-2.8,0.1-5.7,0-8.5,0c-134,0-268,0-402,0
		c-2,0-4-0.1-6,0c-3.8,0.2-6.4-1.2-8.7-4.5c-4.3-6.4-9.1-12.4-16.7-15.4c-4-1.6-8.5-0.2-12.2-2.4c-3.4-2-6.4-1.3-9.4,0.7
		c-3.4,2.2-6.3,4.9-8.3,8.5c-6.5,12-9.5,25.1-12.1,38.3c-1,5-2.7,10.4-8,11.1c-9.8,1.3-19.8,3.2-29.2-2.5
		c-10.3-6.2-21.4-10.5-33.8-10.7c-8.4-0.1-15.5-2.7-19.6-11.2c-2.3-4.8-5.3-9.3-8.8-13.4c-6.8-8-14.3-15.1-26.3-13.5
		c-4.1,0.6-7.7,1.9-9.1,6c-2.5,7.2-4.4,14.6-6,22.1c-1.2,5.5-4.1,10.5-9.7,12.5c-5.8,2-10.1-0.9-13.9-5.4
		c-3.4-4.1-6.2-8.7-10.8-11.8c-7.8-5.3-16.3-8.1-25.7-8.4c-3-0.1-5.7-0.7-7.6-3.1c-3.3-4.4-8-6.7-13-8c-13.4-3.5-22.9-3.9-22.6,15.3
		c0,2.7,0.2,5.5-0.6,8c-3.7,11.9-3,24.5-4.7,36.7c-2.3,16.2-3.9,32.6-6.1,48.9c-1.8,13.7-3,27.5-5.4,41.1c-0.3,1.9,0.5,3.6,1,5.4
		c1.2,4.9,1.4,9.8-0.5,14.7c-6.3,16.3-15.6,31.3-20.5,48.2c-1.3,4.6-1.6,8.7,0.3,13.1c4.7,11,12.6,20.1,19.2,29.9
		c8.3,12.3,16.9,24.4,17.7,40.1c0.2,3.8,2.5,6.2,7.2,5.4C163.1,565.4,166.9,565.9,170.5,565.9z"/>
</g>
</svg>
